<svg xmlns="http://www.w3.org/2000/svg" viewBox="0 0 207.78 138.94"><path d="M103.89,14c31,0,65.5,34.8,76.84,46.23,4.16,4.2,7.5,7.38,9.93,9.7l.14.14c-2,2.09-4.4,4.52-6.54,6.67l-3.55,3.58c-17.54,17.77-44,44.62-76.82,44.62-13.45,0-27.79-4.91-42.6-14.58-11.08-7.24-22.52-17.23-34-29.69-3-3.27-5.65-6-8-8.36-.71-.74-1.48-1.52-2.22-2.3,2.62-2.46,6.07-5.74,10.12-10.07,7.91-8.45,20.11-20.83,34.54-30.63C76.72,19.15,90.9,14,103.89,14m0-14C67.81,0,35.62,30.48,17,50.37,6,62.12,0,65.35,0,69.47s6.54,9.34,17,20.69c18.49,20.08,50.24,48.78,86.89,48.78,38.35,0,67.89-29.65,86.78-48.78,9.47-9.6,17.11-16.69,17.11-20.69,0-3.68-4-5.85-17.11-19.1C171.71,31.24,137.79,0,103.89,0Z"/><path d="M103.89,42.06A27.15,27.15,0,1,1,76.75,69.21a27.18,27.18,0,0,1,27.14-27.15m0-14A41.15,41.15,0,1,0,145,69.21a41.15,41.15,0,0,0-41.15-41.15Z"/></svg>