<svg xmlns="http://www.w3.org/2000/svg" viewBox="0 0 192.19 137.84"><defs><style>.a{fill:#ffbf47;}</style></defs><path d="M51.31,107.85c3.83,0,11.19-1.34,11.19-11.8V50.18H53.7V42.41H72.54v54c0,17.5-13.56,19.78-20.09,19.78a24.32,24.32,0,0,1-3.41-.21v-8.18S50,107.85,51.31,107.85Zm11-86.15H72.85V32H62.29Z"/><path d="M109.5,41.17c11.91,0,16.16,8.8,16.16,8.8h.2a23.69,23.69,0,0,1-.31-3.93V29.47h-8.69V21.7H135.6V84.76A2,2,0,0,0,137.88,87h5.28v7.77H132.7c-4.66,0-6.52-2.28-6.52-5.7v-.72a10.75,10.75,0,0,1,.31-2.8h-.21S122,96.05,108.57,96.05c-14.08,0-22.88-11.18-22.88-27.44C85.69,51.94,95.42,41.17,109.5,41.17Zm1.25,46.18c7.76,0,15.11-5.59,15.11-18.64,0-9.63-4.86-18.74-14.8-18.74-8.39,0-15.12,6.73-15.12,18.64C95.94,80,102.05,87.35,110.75,87.35Z"/><path class="a" d="M14.17,92C14.17,74.67,0,73,0,73V62.67S14.17,61,14.17,43.5V29.83C14.17,2.33,32.33,0,38.83,0H41.5V9.33H39.83c-4,0-15.16,1.5-15.16,20.84V46.5c0,16.34-13.34,21.17-13.34,21.17V68s13.34,4.17,13.34,21.17V107.5c0,19.34,11.16,20.84,15.16,20.84H41.5v9.33a17.61,17.61,0,0,1-2.67.17c-6.5,0-24.66-2.34-24.66-30Z"/><path class="a" d="M178,107.84c0,27.66-18.16,30-24.66,30a17.61,17.61,0,0,1-2.67-.17v-9.33h1.67c4,0,15.16-1.5,15.16-20.84V89.17c0-17,13.34-21.17,13.34-21.17v-.33s-13.34-4.83-13.34-21.17V30.17c0-19.34-11.16-20.84-15.16-20.84h-1.67V0h2.67C159.86,0,178,2.33,178,29.83V43.5c0,17.5,14.17,19.17,14.17,19.17V73S178,74.67,178,92Z"/></svg>