<svg xmlns="http://www.w3.org/2000/svg" viewBox="0 0 1052.34 135.43"><defs><style>.a{fill:#ffbf47;}</style></defs><path d="M57.34,109.47c4,0,12.1-1.62,12.1-14.63V46.23H59.86V42.3H73.68V94.74c0,16.74-10.89,18.66-16,18.66a14.31,14.31,0,0,1-2.52-.2v-3.93A11.41,11.41,0,0,0,57.34,109.47Zm11.5-87.34h5.45v7.36H68.84Z"/><path d="M108.67,41.09c13.72,0,20.58,10.79,20.58,23,0,1.11-.2,2.73-.2,2.73H88.6c0,14.62,9.89,23,21.59,23a22.83,22.83,0,0,0,15.63-6.35L128.14,87a27.48,27.48,0,0,1-17.95,7c-14.22,0-26-10.29-26-26.33C84.17,50.57,95.77,41.09,108.67,41.09Zm16.14,21.78c-.5-12.3-7.87-17.85-16.24-17.85-9.28,0-17.85,6-19.66,17.85Z"/><path d="M138.82,88.79h9.08V48.45a2,2,0,0,0-2.22-2.22h-7.36V42.3h8c4.13,0,5.85,1.72,5.85,5.55v3.33a20.75,20.75,0,0,1-.41,4.13h.21a23.23,23.23,0,0,1,21.38-14.22c13.11,0,16.64,7.77,16.64,19.67v28H199v3.94H185.72V62.27c0-8.77-1.11-17.05-12.4-17.05-12,0-21.18,10.29-21.18,22.49V88.79h9.07v3.94H138.82Z"/><path d="M205.48,88.79h9.08V48.45a2,2,0,0,0-2.22-2.22H205V42.3h8c4.13,0,5.85,1.72,5.85,5.55v3.33a20.75,20.75,0,0,1-.41,4.13h.2A23.26,23.26,0,0,1,240,41.09c13.12,0,16.65,7.77,16.65,19.67v28h9.07v3.94H252.38V62.27c0-8.77-1.11-17.05-12.41-17.05-12,0-21.17,10.29-21.17,22.49V88.79h9.07v3.94H205.48Z"/><path d="M272.14,88.79h9.08V46.23h-9.58V42.3h13.82V88.79h9.07v3.94H272.14Zm8.47-66.66h5.45v7.36h-5.45Z"/><path d="M301.89,88.79H311V46.23h-9.58V42.3H311V39.58c0-15.84,10.28-17.75,14.92-17.75a19.22,19.22,0,0,1,3.63.3v3.93a16.37,16.37,0,0,0-3.32-.3c-3.63,0-11,1.51-11,13.72V42.3h13.42v3.93H315.2V88.79h10.59v3.94h-23.9Z"/><path d="M360,41.09c13.72,0,20.57,10.79,20.57,23,0,1.11-.2,2.73-.2,2.73H339.91c0,14.62,9.88,23,21.58,23a22.84,22.84,0,0,0,15.64-6.35L379.44,87a27.44,27.44,0,0,1-17.95,7c-14.22,0-26-10.29-26-26.33C335.47,50.57,347.07,41.09,360,41.09Zm16.14,21.78C375.61,50.57,368.25,45,359.88,45c-9.28,0-17.85,6-19.67,17.85Z"/><path d="M390.74,88.79h8.06V48.45a2,2,0,0,0-2.21-2.22h-7.37V42.3h8c4.14,0,5.85,1.72,5.85,5.55v3.53c0,2.32-.2,4.13-.2,4.13h.2c2.52-7.76,8-13.61,15.93-13.61a16,16,0,0,1,2.93.3v4.24a15.81,15.81,0,0,0-2.32-.21c-11.8,0-16.54,14.43-16.54,24.71V88.79h8.07v3.94H390.74Z"/><path d="M476.35,41.09c12.71,0,17.45,11.09,17.45,11.09h.2a21.25,21.25,0,0,1-.4-4.13v-22H484V22.13h13.82V86.57a2,2,0,0,0,2.21,2.22h6.06v3.94h-6.66c-4.13,0-5.85-1.72-5.85-5.55V86.07a12.37,12.37,0,0,1,.4-3.53h-.2s-4.33,11.4-18.25,11.4c-13.52,0-21.79-10.79-21.79-26.43C453.76,51.48,463.14,41.09,476.35,41.09Zm-.6,48.71c9.28,0,17.95-6.55,17.95-22.39,0-11.19-5.75-22.19-17.55-22.19-9.88,0-17.95,8.17-17.95,22.29C458.2,81.13,465.46,89.8,475.75,89.8Z"/><path d="M521.53,46.23H512V42.3h13.82V72.76c0,8.77,1.11,17,12.4,17,12.61,0,20.68-11.09,20.68-22.89V46.23h-9.58V42.3h13.81V86.68a2,2,0,0,0,2.22,2.21h6.05v3.84H564.7c-4.14,0-5.85-1.72-5.85-5.55V84.36c0-2.32.2-4.14.2-4.14h-.2a22.28,22.28,0,0,1-20.68,13.72c-12.4,0-16.64-6.86-16.64-19.67Z"/><path d="M579.32,88.79h9.07V46.23h-9.58V42.3h9.58V39.58c0-15.84,10.29-17.75,14.93-17.75a19.22,19.22,0,0,1,3.63.3v3.93a16.42,16.42,0,0,0-3.33-.3c-3.63,0-11,1.51-11,13.72V42.3h27.63V39.58c0-15.84,10.29-17.75,14.93-17.75a19.22,19.22,0,0,1,3.63.3v3.93a16.42,16.42,0,0,0-3.33-.3c-3.63,0-11,1.51-11,13.72V42.3h13.41v3.93H624.5V88.79h10.59v3.94H611.18V88.79h9.08V46.23H592.63V88.79h10.59v3.94h-23.9Z"/><path d="M693.17,40.49c11.6,0,15.73,8.57,15.73,8.57h.2a23.34,23.34,0,0,1-.3-3.84V29.09h-8.47V21.53h18.25V82.94a2,2,0,0,0,2.22,2.22H726v7.57H715.76c-4.54,0-6.35-2.22-6.35-5.55v-.71a10.48,10.48,0,0,1,.3-2.72h-.2s-4.14,10.19-17.25,10.19C678.55,93.94,670,83,670,67.21,670,51,679.45,40.49,693.17,40.49Zm1.21,45c7.56,0,14.72-5.45,14.72-18.16,0-9.38-4.74-18.25-14.42-18.25-8.17,0-14.72,6.55-14.72,18.15C680,78.3,685.91,85.47,694.38,85.47Z"/><path d="M758.82,40.49c14.52,0,22.09,10.69,22.09,23.9,0,1.31-.3,3.73-.3,3.73H743.29c.61,11.29,8.57,17.35,17.65,17.35a24.86,24.86,0,0,0,15.23-5.75l4,7.16a31.25,31.25,0,0,1-19.87,7.06c-16,0-27-11.6-27-26.73C733.31,51,744.3,40.49,758.82,40.49Zm12,21.38c-.3-9-5.75-13.62-12.2-13.62-7.46,0-13.51,5-14.93,13.62Z"/><path d="M789.17,76.29h8.58v3.33c0,4.33,6,6.35,11.7,6.35s10.28-2.32,10.28-6.56c0-5.14-5.65-6.75-12.71-9.27-7.56-2.83-15.93-6.26-15.93-15.54,0-10.08,10-14.11,18.86-14.11,7.16,0,17.65,2.82,17.65,10.28v6.15H819V53.6c0-3.13-4-5.25-9-5.25s-9.08,2-9.08,6.15c0,4.84,5.65,6.86,11.8,9,7.87,2.62,16.85,6,16.85,15.43,0,9.68-8.88,15-20.48,15-9.28,0-20-4.14-20-12.21Z"/><path d="M838.49,85.16h8V49.26H838V41.7h18.26V85.16h8.06v7.57H838.49Zm7.76-63.63h10.29v10H846.25Z"/><path d="M893.25,105.64c8.87,0,16.13-4,16.13-14.53v-4a20.36,20.36,0,0,1,.3-3.23h-.2c-3,5-7.86,8.27-15.33,8.27-14.12,0-22.79-11.4-22.79-26.12s8.17-25.51,22.39-25.51c6.66,0,13.72,2.52,16.54,8.37h.2a8.21,8.21,0,0,1-.2-2c0-3.23,1.61-5.14,5.85-5.14H927v7.56h-5.65a2,2,0,0,0-2.21,2V90.61c0,16.84-12.81,23.3-25.72,23.3A40.15,40.15,0,0,1,876,109.67l3.23-7.46A32.85,32.85,0,0,0,893.25,105.64ZM909.58,66.1c0-13.31-6.45-17.14-14.42-17.14-8.77,0-13.81,6.45-13.81,16.84,0,10.59,5.54,17.85,14.72,17.85C903.13,83.65,909.58,79.41,909.58,66.1Z"/><path d="M935,85.16h8V51.48a2,2,0,0,0-2.22-2.22h-6.25V41.7H946c4.43,0,6.45,1.91,6.45,5.64V50a14.58,14.58,0,0,1-.3,2.92h.2a21.47,21.47,0,0,1,19.87-12.4c11.7,0,16.94,6.55,16.94,19.56V85.16h8.07v7.57H979.37V62.27c0-7.16-1.41-12.81-9.58-12.81-10.29,0-17,9.38-17,19.57V85.16h8.07v7.57H935Z"/><path class="a" d="M14.41,90.39C14.41,73.36,0,71.73,0,71.73V61.57s14.41-1.63,14.41-18.83V29.31C14.41,2.29,32.9,0,39.51,0h2.71V9.17H40.53c-4.07,0-15.43,1.47-15.43,20.47v16a21.82,21.82,0,0,1-13.57,20.8v.32s13.57,4.1,13.57,20.8v18c0,19,11.36,20.47,15.43,20.47h1.69v9.17a18.05,18.05,0,0,1-2.71.17c-6.61,0-25.1-2.3-25.1-29.48Z"/><path class="a" d="M1037.93,106c0,27.18-18.48,29.48-25.1,29.48a18.22,18.22,0,0,1-2.71-.17v-9.17h1.7c4.07,0,15.43-1.47,15.43-20.47v-18c0-16.7,13.56-20.8,13.56-20.8v-.32a21.81,21.81,0,0,1-13.56-20.8v-16c0-19-11.36-20.47-15.43-20.47h-1.7V0h2.71c6.62,0,25.1,2.29,25.1,29.31V42.74c0,17.2,14.41,18.83,14.41,18.83V71.73s-14.41,1.63-14.41,18.66Z"/></svg>