<svg xmlns="http://www.w3.org/2000/svg" viewBox="0 0 113.75 99.04"><defs><style>.cls-1{fill:#fff;}.cls-2{fill:#fcc842;}</style></defs><g id="Layer_2" data-name="Layer 2"><g id="Layer_1-2" data-name="Layer 1"><path class="cls-1" d="M83.17,98.2V84.77h4.89c3.87,0,4.17-7.47,4.17-9.76V62.9c0-7.07,2.45-11.51,4.89-14.17-2.42-2.71-4.89-7.15-4.89-14V23.93c0-2.29-.3-9.77-4.17-9.77H83.17V0H30.59V14.16h-4.9c-3.87,0-4.17,7.48-4.17,9.77V34.71c0,6.87-2.46,11.31-4.89,14,2.45,2.66,4.89,7.1,4.89,14.17V75c0,2.29.3,9.76,4.17,9.76h4.9V98.2l-3.2.65a11.3,11.3,0,0,1-2.24.19H88.6a11.25,11.25,0,0,1-2.23-.19Z"/><path class="cls-2" d="M23.83,88.51a6.43,6.43,0,0,1-2-1,6.74,6.74,0,0,1-1-.87,9.34,9.34,0,0,1-1.55-2.24c-.18-.37-.36-.78-.52-1.21A17.26,17.26,0,0,1,18.09,81a28.83,28.83,0,0,1-.57-6h0V62.9a23.44,23.44,0,0,0-.3-3.83A17.66,17.66,0,0,0,16.4,56a13.65,13.65,0,0,0-2.47-4.27,10.91,10.91,0,0,0-1.31-1.32,8.66,8.66,0,0,0-2.28-1.46h0V48.7s7.18-3.2,7.18-14V23.93c0-1.2.06-2.29.15-3.29.07-.67.15-1.29.26-1.88.05-.29.1-.57.16-.85A13.82,13.82,0,0,1,19.54,14a9.53,9.53,0,0,1,.93-1.34,6.7,6.7,0,0,1,5.22-2.46h.9V4H25.15a12,12,0,0,0-5.74,1.45,9.7,9.7,0,0,0-1.11.7A11,11,0,0,0,17.2,7a12.72,12.72,0,0,0-2,2.45c-.16.24-.31.5-.46.76-1.66,2.93-2.82,7.21-2.82,13.46v9a19.65,19.65,0,0,1-.7,5.46,14.25,14.25,0,0,1-.49,1.4,11.15,11.15,0,0,1-.58,1.2A9.79,9.79,0,0,1,7.7,43.7a7.5,7.5,0,0,1-.71.52,7.78,7.78,0,0,1-1,.56,7.21,7.21,0,0,1-1.07.43l-.51.15-.19,0v6.83h.09l.24.06a6.35,6.35,0,0,1,.86.28c.18.07.38.15.58.25A9.2,9.2,0,0,1,7.7,53.9a8.2,8.2,0,0,1,.71.64l.36.37a10.79,10.79,0,0,1,.69.86,5.72,5.72,0,0,1,.32.48,9.72,9.72,0,0,1,.62,1.11,12.84,12.84,0,0,1,.77,2,16,16,0,0,1,.37,1.58,16,16,0,0,1,.24,1.8c.06.64.09,1.31.09,2V75.23a45.14,45.14,0,0,0,.24,4.71c.11,1,.25,1.85.41,2.69.09.41.18.82.28,1.21a21.87,21.87,0,0,0,1,3.17,16,16,0,0,0,1.32,2.52,14.73,14.73,0,0,0,1,1.35,12.55,12.55,0,0,0,2.16,2,11.13,11.13,0,0,0,3.82,1.77,12.18,12.18,0,0,0,3,.38,8,8,0,0,0,1.44-.11V88.77h-.9A6.78,6.78,0,0,1,23.83,88.51Z"/><path class="cls-1" d="M30.59,98.2V84.77h-4.9c-3.87,0-4.17-7.47-4.17-9.76V62.9c0-7.07-2.44-11.51-4.89-14.17,2.43-2.71,4.89-7.15,4.89-14V23.93c0-2.29.3-9.77,4.17-9.77h4.9V0H25.15C21.1,0,7.87,1.71,7.87,23.71v9c0,7.32-3.59,8.54-4.25,8.71L0,41.74V56l3.62.22c.66.17,4.25,1.38,4.25,8.6V75.23C7.87,97.33,21.1,99,25.15,99a11.3,11.3,0,0,0,2.24-.19Zm-4-9.43v6.16h0a8,8,0,0,1-1.44.11,12.18,12.18,0,0,1-3-.38,11.13,11.13,0,0,1-3.82-1.77,12.55,12.55,0,0,1-2.16-2,14.73,14.73,0,0,1-1-1.35A16,16,0,0,1,13.83,87a21.87,21.87,0,0,1-1-3.17c-.1-.39-.19-.8-.28-1.21-.16-.84-.3-1.74-.41-2.69a45.14,45.14,0,0,1-.24-4.71V64.77c0-.72,0-1.39-.09-2a16,16,0,0,0-.24-1.8,16,16,0,0,0-.37-1.58,12.84,12.84,0,0,0-.77-2,9.72,9.72,0,0,0-.62-1.11,5.72,5.72,0,0,0-.32-.48,10.79,10.79,0,0,0-.69-.86l-.36-.37a8.2,8.2,0,0,0-.71-.64A9.2,9.2,0,0,0,6,52.82c-.2-.1-.4-.18-.58-.25a6.35,6.35,0,0,0-.86-.28l-.24-.06H4.24V45.39h0l.19,0,.51-.15A7.21,7.21,0,0,0,6,44.78a7.78,7.78,0,0,0,1-.56,7.5,7.5,0,0,0,.71-.52,9.79,9.79,0,0,0,2.4-2.91,11.15,11.15,0,0,0,.58-1.2,14.25,14.25,0,0,0,.49-1.4,19.65,19.65,0,0,0,.7-5.46v-9h0c0-6.25,1.16-10.53,2.82-13.46.15-.26.3-.52.46-.76A12.72,12.72,0,0,1,17.2,7a11,11,0,0,1,1.1-.89,9.7,9.7,0,0,1,1.11-.7A12,12,0,0,1,25.15,4h1.44v6.16h-.9a6.7,6.7,0,0,0-5.22,2.46A9.53,9.53,0,0,0,19.54,14a13.82,13.82,0,0,0-1.45,3.95c-.06.28-.11.56-.16.85-.11.59-.19,1.21-.26,1.88-.09,1-.15,2.09-.15,3.29V34.71c0,10.79-7.18,14-7.18,14v.22a8.66,8.66,0,0,1,2.28,1.46,10.91,10.91,0,0,1,1.31,1.32A13.65,13.65,0,0,1,16.4,56a17.66,17.66,0,0,1,.82,3.1,23.44,23.44,0,0,1,.3,3.83h0V75a28.83,28.83,0,0,0,.57,6,17.26,17.26,0,0,0,.64,2.21c.16.43.34.84.52,1.21a9.34,9.34,0,0,0,1.55,2.24,6.74,6.74,0,0,0,1,.87,6.43,6.43,0,0,0,2,1,6.78,6.78,0,0,0,1.86.26Z"/><path class="cls-2" d="M106.06,43.7q-.18-.14-.36-.3a10.12,10.12,0,0,1-2-2.61,11.15,11.15,0,0,1-.58-1.2,15.64,15.64,0,0,1-1-3.87c-.08-.61-.13-1.25-.16-1.93,0-.34,0-.7,0-1.06h0v-9a35.65,35.65,0,0,0-.93-8.57A20,20,0,0,0,100.3,13a18.13,18.13,0,0,0-.79-1.87,13.85,13.85,0,0,0-2.42-3.52,11.13,11.13,0,0,0-1.08-1,11.45,11.45,0,0,0-1.11-.8A11.9,11.9,0,0,0,88.6,4H87.17v6.16h.89a6.79,6.79,0,0,1,2.85.62,7.39,7.39,0,0,1,1,.6,5.65,5.65,0,0,1,.68.55l.34.33a8.74,8.74,0,0,1,.65.77,10,10,0,0,1,1.16,2.05c.09.2.17.41.25.63a15.63,15.63,0,0,1,.64,2.2,23.86,23.86,0,0,1,.42,2.73c.1,1,.15,2.09.15,3.29h0V34.71a19.34,19.34,0,0,0,1.12,6.74,15.26,15.26,0,0,0,1.15,2.43,14.25,14.25,0,0,0,1.32,1.87,11.28,11.28,0,0,0,3.59,3h0v.22a7.4,7.4,0,0,0-1.66,1A10.3,10.3,0,0,0,100.49,51a11.51,11.51,0,0,0-1.34,1.57,11.32,11.32,0,0,0-.65,1,15.21,15.21,0,0,0-1.61,3.9,21.19,21.19,0,0,0-.66,5.46V75h0a30.65,30.65,0,0,1-.4,5.16A14.76,14.76,0,0,1,94.22,85c-.2.34-.4.65-.61.94s-.43.54-.65.77a6.68,6.68,0,0,1-2.71,1.73,4.34,4.34,0,0,1-.63.18,7,7,0,0,1-1.56.18h-.89v6.16A7.61,7.61,0,0,0,88,95h.6a11.85,11.85,0,0,0,5.74-1.45,10.36,10.36,0,0,0,1.12-.7,12.15,12.15,0,0,0,2.15-2,13.13,13.13,0,0,0,1-1.35,16.18,16.18,0,0,0,.9-1.61c.14-.29.28-.59.41-.91a30.36,30.36,0,0,0,2-11.78V64.77h0c0-.36,0-.71,0-1a19.38,19.38,0,0,1,.48-3.61,13.08,13.08,0,0,1,1-2.76,11.52,11.52,0,0,1,.61-1.11q.16-.26.33-.48a7.63,7.63,0,0,1,.69-.86,8.32,8.32,0,0,1,1.07-1c.24-.19.47-.36.7-.52a7.55,7.55,0,0,1,2.75-1.16V45.39a6.92,6.92,0,0,1-2.08-.77A8.21,8.21,0,0,1,106.06,43.7Z"/><path class="cls-1" d="M105.89,32.73v-9C105.89,1.71,92.66,0,88.6,0H83.17V14.16h4.89c3.87,0,4.17,7.48,4.17,9.77V34.71c0,6.87,2.47,11.31,4.89,14-2.44,2.66-4.89,7.1-4.89,14.17V75c0,2.29-.3,9.76-4.17,9.76H83.17V98.2l3.2.65A11.25,11.25,0,0,0,88.6,99c4.06,0,17.29-1.71,17.29-23.81V64.77c0-7.22,3.59-8.44,4.25-8.6l3.61-.3V41.7l-3.61-.26C109.47,41.27,105.89,40,105.89,32.73Zm3.62,12.66v6.83h0a7.55,7.55,0,0,0-2.75,1.16c-.23.16-.46.33-.7.52a8.32,8.32,0,0,0-1.07,1,7.63,7.63,0,0,0-.69.86q-.17.23-.33.48a11.52,11.52,0,0,0-.61,1.11,13.08,13.08,0,0,0-1,2.76,19.38,19.38,0,0,0-.48,3.61c0,.33,0,.68,0,1V75.23h0a30.36,30.36,0,0,1-2,11.78c-.13.32-.27.62-.41.91a16.18,16.18,0,0,1-.9,1.61,13.13,13.13,0,0,1-1,1.35,12.15,12.15,0,0,1-2.15,2,10.36,10.36,0,0,1-1.12.7A11.85,11.85,0,0,1,88.6,95H88a7.61,7.61,0,0,1-.83-.1h0V88.77h.89a7,7,0,0,0,1.56-.18,4.34,4.34,0,0,0,.63-.18A6.68,6.68,0,0,0,93,86.68c.22-.23.43-.49.65-.77s.41-.6.61-.94a14.76,14.76,0,0,0,1.61-4.8,30.65,30.65,0,0,0,.4-5.16V62.9a21.19,21.19,0,0,1,.66-5.46,15.21,15.21,0,0,1,1.61-3.9,11.32,11.32,0,0,1,.65-1A11.51,11.51,0,0,1,100.49,51a10.3,10.3,0,0,1,1.26-1.08,7.4,7.4,0,0,1,1.66-1V48.7a11.28,11.28,0,0,1-3.59-3,14.25,14.25,0,0,1-1.32-1.87,15.26,15.26,0,0,1-1.15-2.43,19.34,19.34,0,0,1-1.12-6.74V23.93c0-1.2,0-2.29-.15-3.29a23.86,23.86,0,0,0-.42-2.73,15.63,15.63,0,0,0-.64-2.2c-.08-.22-.16-.43-.25-.63A10,10,0,0,0,93.61,13a8.74,8.74,0,0,0-.65-.77l-.34-.33a5.65,5.65,0,0,0-.68-.55,7.39,7.39,0,0,0-1-.6,6.79,6.79,0,0,0-2.85-.62h-.89V4H88.6a11.9,11.9,0,0,1,6.3,1.77,11.45,11.45,0,0,1,1.11.8,11.13,11.13,0,0,1,1.08,1,13.85,13.85,0,0,1,2.42,3.52A18.13,18.13,0,0,1,100.3,13a20,20,0,0,1,.66,2.18,35.65,35.65,0,0,1,.93,8.57h0v9c0,.36,0,.72,0,1.06,0,.68.08,1.32.16,1.93a15.64,15.64,0,0,0,1,3.87,11.15,11.15,0,0,0,.58,1.2,10.12,10.12,0,0,0,2,2.61q.18.16.36.3a8.21,8.21,0,0,0,1.37.92,6.92,6.92,0,0,0,2.08.77Z"/><path d="M41.76,34.06V65.89a11.16,11.16,0,0,1-.71,4.17,5.35,5.35,0,0,1-2.36,2.69,9.06,9.06,0,0,1-4.45.93H26.33V71.6h8a5.23,5.23,0,0,0,3.62-1.18q1.32-1.19,1.32-4.2V34.06ZM31,36.15V34.06h9.5v2.09Zm7.85-8.34V23.86h3.29v3.95Z"/><path d="M70.52,33.52A15.33,15.33,0,0,1,79.17,36,16.66,16.66,0,0,1,85,42.74a22.16,22.16,0,0,1,2.14,9.95A22,22,0,0,1,85,62.57a16.88,16.88,0,0,1-5.84,6.81,15.19,15.19,0,0,1-8.65,2.47,15,15,0,0,1-7-1.63,14.3,14.3,0,0,1-5.11-4.31l-.2,5.14H51.82V22h6.75V39.2A13.16,13.16,0,0,1,63.64,35,15.75,15.75,0,0,1,70.52,33.52ZM69.05,66.18a10.29,10.29,0,0,0,6-1.74,11.54,11.54,0,0,0,3.94-4.77,16.6,16.6,0,0,0,1.4-7,16.77,16.77,0,0,0-1.4-7A11.32,11.32,0,0,0,75,40.9a10.42,10.42,0,0,0-6-1.7,10.71,10.71,0,0,0-6.34,2,11.45,11.45,0,0,0-4.14,5.51v12a11.89,11.89,0,0,0,4.14,5.51A10.5,10.5,0,0,0,69.05,66.18Z"/><path class="cls-1" d="M4.94,45.21A7.21,7.21,0,0,0,6,44.78,7.21,7.21,0,0,1,4.94,45.21Z"/><path class="cls-1" d="M7,44.22a7.5,7.5,0,0,0,.71-.52A7.5,7.5,0,0,1,7,44.22Z"/><path class="cls-1" d="M93.61,85.91c.21-.29.41-.6.61-.94C94,85.31,93.82,85.62,93.61,85.91Z"/><path class="cls-1" d="M20.47,12.62a6.7,6.7,0,0,1,5.22-2.46h0A6.7,6.7,0,0,0,20.47,12.62Z"/><path class="cls-1" d="M4.43,45.36l.51-.15Z"/><path class="cls-1" d="M95.66,17.91a15.63,15.63,0,0,0-.64-2.2A15.63,15.63,0,0,1,95.66,17.91Z"/><path class="cls-1" d="M92.62,11.93a5.65,5.65,0,0,0-.68-.55A5.65,5.65,0,0,1,92.62,11.93Z"/><path class="cls-1" d="M93.61,13a8.74,8.74,0,0,0-.65-.77A8.74,8.74,0,0,1,93.61,13Z"/><path class="cls-1" d="M94.77,15.08A10,10,0,0,0,93.61,13,10,10,0,0,1,94.77,15.08Z"/><path class="cls-1" d="M93,86.68c.22-.23.43-.49.65-.77C93.39,86.19,93.18,86.45,93,86.68Z"/><path class="cls-1" d="M96.08,20.64a23.86,23.86,0,0,0-.42-2.73A23.86,23.86,0,0,1,96.08,20.64Z"/><path class="cls-1" d="M22.12,94.66a12.18,12.18,0,0,0,3,.38,8,8,0,0,0,1.44-.11h0a8,8,0,0,1-1.44.11A12.18,12.18,0,0,1,22.12,94.66Z"/><path class="cls-1" d="M104,56.25a11.52,11.52,0,0,0-.61,1.11A11.52,11.52,0,0,1,104,56.25Z"/><path class="cls-1" d="M89.62,88.59a4.34,4.34,0,0,0,.63-.18A4.34,4.34,0,0,1,89.62,88.59Z"/><path class="cls-1" d="M109.51,52.22h0a7.55,7.55,0,0,0-2.75,1.16A7.55,7.55,0,0,1,109.51,52.22Z"/><path class="cls-1" d="M105,54.91a7.63,7.63,0,0,0-.69.86A7.63,7.63,0,0,1,105,54.91Z"/><path class="cls-1" d="M95.46,92.89a10.36,10.36,0,0,1-1.12.7A10.36,10.36,0,0,0,95.46,92.89Z"/><path class="cls-1" d="M101.89,75.23h0a30.36,30.36,0,0,1-2,11.78A30.36,30.36,0,0,0,101.89,75.23Z"/><path class="cls-1" d="M16.14,90.88a12.55,12.55,0,0,0,2.16,2A12.55,12.55,0,0,1,16.14,90.88Z"/><path class="cls-1" d="M98.61,89.53a13.13,13.13,0,0,1-1,1.35A13.13,13.13,0,0,0,98.61,89.53Z"/><path class="cls-1" d="M99.51,87.92a16.18,16.18,0,0,1-.9,1.61A16.18,16.18,0,0,0,99.51,87.92Z"/><path class="cls-1" d="M87.17,94.93A7.61,7.61,0,0,0,88,95a7.61,7.61,0,0,1-.83-.1Z"/><path class="cls-1" d="M13.83,87a21.87,21.87,0,0,1-1-3.17A21.87,21.87,0,0,0,13.83,87Z"/><path class="cls-1" d="M95.46,92.89a12.15,12.15,0,0,0,2.15-2A12.15,12.15,0,0,1,95.46,92.89Z"/><path class="cls-1" d="M12.52,82.63c-.16-.84-.3-1.74-.41-2.69C12.22,80.89,12.36,81.79,12.52,82.63Z"/><path class="cls-1" d="M16.14,90.88a14.73,14.73,0,0,1-1-1.35A14.73,14.73,0,0,0,16.14,90.88Z"/><path class="cls-1" d="M96.08,20.64c.1,1,.15,2.09.15,3.29h0C96.23,22.73,96.18,21.64,96.08,20.64Z"/><path class="cls-1" d="M87.17,10.16h.89a6.79,6.79,0,0,1,2.85.62,6.79,6.79,0,0,0-2.85-.62Z"/><path class="cls-1" d="M91.94,11.38a7.39,7.39,0,0,0-1-.6A7.39,7.39,0,0,1,91.94,11.38Z"/><path class="cls-1" d="M105,54.91a8.32,8.32,0,0,1,1.07-1A8.32,8.32,0,0,0,105,54.91Z"/><path class="cls-1" d="M22.12,94.66a11.13,11.13,0,0,1-3.82-1.77A11.13,11.13,0,0,0,22.12,94.66Z"/><path class="cls-1" d="M20.47,12.62A9.53,9.53,0,0,0,19.54,14,9.53,9.53,0,0,1,20.47,12.62Z"/><path class="cls-1" d="M4.24,45.39h0l.19,0Z"/><path class="cls-1" d="M18.09,81a28.83,28.83,0,0,1-.57-6h0A28.83,28.83,0,0,0,18.09,81Z"/><path class="cls-1" d="M96,6.57a11.13,11.13,0,0,1,1.08,1A11.13,11.13,0,0,0,96,6.57Z"/><path class="cls-1" d="M94.9,5.77a11.45,11.45,0,0,1,1.11.8A11.45,11.45,0,0,0,94.9,5.77Z"/><path class="cls-1" d="M94.9,5.77A11.9,11.9,0,0,0,88.6,4h0A11.9,11.9,0,0,1,94.9,5.77Z"/><path class="cls-1" d="M17.93,18.76c-.11.59-.19,1.21-.26,1.88C17.74,20,17.82,19.35,17.93,18.76Z"/><path class="cls-1" d="M18.73,83.23c.16.43.34.84.52,1.21C19.07,84.07,18.89,83.66,18.73,83.23Z"/><path class="cls-1" d="M19.54,14a13.82,13.82,0,0,0-1.45,3.95A13.82,13.82,0,0,1,19.54,14Z"/><path class="cls-1" d="M18.3,6.15a9.7,9.7,0,0,1,1.11-.7A9.7,9.7,0,0,0,18.3,6.15Z"/><path class="cls-1" d="M17.2,7a11,11,0,0,1,1.1-.89A11,11,0,0,0,17.2,7Z"/><path class="cls-1" d="M4.57,52.29l-.24-.06Z"/><path class="cls-1" d="M9.46,55.77a10.79,10.79,0,0,0-.69-.86A10.79,10.79,0,0,1,9.46,55.77Z"/><path class="cls-1" d="M8.41,54.54a8.2,8.2,0,0,0-.71-.64A8.2,8.2,0,0,1,8.41,54.54Z"/><path class="cls-1" d="M11.87,23.71h0c0-6.25,1.16-10.53,2.82-13.46C13,13.18,11.87,17.46,11.87,23.71Z"/><path class="cls-1" d="M11.87,64.77c0-.72,0-1.39-.09-2C11.84,63.38,11.87,64.05,11.87,64.77Z"/><path class="cls-1" d="M11.54,60.94a16,16,0,0,0-.37-1.58A16,16,0,0,1,11.54,60.94Z"/><path class="cls-1" d="M10.4,57.36a9.72,9.72,0,0,0-.62-1.11A9.72,9.72,0,0,1,10.4,57.36Z"/><path class="cls-1" d="M10.68,39.59a14.25,14.25,0,0,0,.49-1.4A14.25,14.25,0,0,1,10.68,39.59Z"/><path class="cls-1" d="M6,52.82c-.2-.1-.4-.18-.58-.25C5.61,52.64,5.81,52.72,6,52.82Z"/><path class="cls-1" d="M10.1,40.79a11.15,11.15,0,0,0,.58-1.2A11.15,11.15,0,0,1,10.1,40.79Z"/><path class="cls-1" d="M16.4,56a17.66,17.66,0,0,1,.82,3.1A17.66,17.66,0,0,0,16.4,56Z"/><path class="cls-1" d="M12.62,50.38a8.66,8.66,0,0,0-2.28-1.46h0A8.66,8.66,0,0,1,12.62,50.38Z"/><path class="cls-1" d="M23.83,88.51a6.78,6.78,0,0,0,1.86.26h0A6.78,6.78,0,0,1,23.83,88.51Z"/><path class="cls-1" d="M17.2,7a12.72,12.72,0,0,0-2,2.45A12.72,12.72,0,0,1,17.2,7Z"/><path class="cls-1" d="M17.52,62.9a23.44,23.44,0,0,0-.3-3.83,23.44,23.44,0,0,1,.3,3.83Z"/><path class="cls-1" d="M20.8,86.68a6.74,6.74,0,0,0,1,.87A6.74,6.74,0,0,1,20.8,86.68Z"/><path class="cls-1" d="M21.82,87.55a6.43,6.43,0,0,0,2,1A6.43,6.43,0,0,1,21.82,87.55Z"/><path class="cls-1" d="M13.93,51.7a10.91,10.91,0,0,0-1.31-1.32A10.91,10.91,0,0,1,13.93,51.7Z"/><path class="cls-1" d="M105.7,43.4a10.12,10.12,0,0,1-2-2.61A10.12,10.12,0,0,0,105.7,43.4Z"/><path class="cls-1" d="M106.06,43.7a8.21,8.21,0,0,0,1.37.92A8.21,8.21,0,0,1,106.06,43.7Z"/><path class="cls-1" d="M109.51,45.39h0a6.92,6.92,0,0,1-2.08-.77A6.92,6.92,0,0,0,109.51,45.39Z"/><path class="cls-1" d="M101.91,33.79c0-.34,0-.7,0-1.06h0C101.89,33.09,101.89,33.45,101.91,33.79Z"/><path class="cls-1" d="M99.82,45.75a11.28,11.28,0,0,0,3.59,3h0A11.28,11.28,0,0,1,99.82,45.75Z"/><path class="cls-1" d="M101.89,64.77c0-.36,0-.71,0-1,0,.33,0,.68,0,1Z"/><path class="cls-1" d="M96.23,75a30.65,30.65,0,0,1-.4,5.16,30.65,30.65,0,0,0,.4-5.16Z"/><path class="cls-1" d="M103.08,39.59a11.15,11.15,0,0,0,.58,1.2A11.15,11.15,0,0,1,103.08,39.59Z"/><path class="cls-1" d="M96.89,57.44a15.21,15.21,0,0,1,1.61-3.9A15.21,15.21,0,0,0,96.89,57.44Z"/><path class="cls-1" d="M99.15,52.55A11.51,11.51,0,0,1,100.49,51,11.51,11.51,0,0,0,99.15,52.55Z"/><path class="cls-1" d="M100.49,51a10.3,10.3,0,0,1,1.26-1.08A10.3,10.3,0,0,0,100.49,51Z"/><path class="cls-1" d="M102.39,60.12a19.38,19.38,0,0,0-.48,3.61A19.38,19.38,0,0,1,102.39,60.12Z"/><path class="cls-1" d="M99.51,11.09A18.13,18.13,0,0,1,100.3,13,18.13,18.13,0,0,0,99.51,11.09Z"/><path class="cls-1" d="M101.89,23.71a35.65,35.65,0,0,0-.93-8.57,35.65,35.65,0,0,1,.93,8.57Z"/><path class="cls-1" d="M98.5,43.88a15.26,15.26,0,0,1-1.15-2.43A15.26,15.26,0,0,0,98.5,43.88Z"/><path class="cls-1" d="M101.91,33.79c0,.68.08,1.32.16,1.93C102,35.11,101.94,34.47,101.91,33.79Z"/><path class="cls-1" d="M102.07,35.72a15.64,15.64,0,0,0,1,3.87A15.64,15.64,0,0,1,102.07,35.72Z"/></g></g></svg>