<svg xmlns="http://www.w3.org/2000/svg" viewBox="0 0 308.78 205.72"><defs><style>.a{fill:#facc57;}</style></defs><rect class="a" x="6.79" y="38.56" width="287.73" height="132.74"/><path d="M24.57,201.28c2.95,0,8.68-1.06,8.68-9.81v-35H26.46v-4.22H38.37v39.29c0,12.59-9,14.17-13.27,14.17a10.12,10.12,0,0,1-2.18-.22v-4.38A7.82,7.82,0,0,0,24.57,201.28Zm8.3-64.1h5.81v6.41H32.87Z"/><path d="M67.4,151.35c10.49,0,15.92,8.07,15.92,17.5a21.11,21.11,0,0,1-.23,2.41H54c.23,9.73,6.86,15.24,14.71,15.24A17.75,17.75,0,0,0,80.22,182l2.34,3.85a21.49,21.49,0,0,1-14,5.28c-11.32,0-19.84-8.15-19.84-19.84C48.7,158.82,57.15,151.35,67.4,151.35ZM78,167.49c-.3-8-5.13-11.84-10.71-11.84-6.33,0-11.84,4.15-13,11.84Z"/><path d="M90.25,186h6.41V158.14A1.48,1.48,0,0,0,95,156.48H89.87v-4.22h7.24c3.17,0,4.6,1.36,4.6,4.22v2.19a12.42,12.42,0,0,1-.3,2.71h.15a16.81,16.81,0,0,1,15.46-10c9.35,0,12.59,5.36,12.59,14.71V186H136v4.22H124.49V167.42c0-6-1-11.24-8.3-11.24-8.37,0-14.4,7.39-14.4,15.76v14h6.41v4.22h-18Z"/><path d="M141.07,186h6.41V158.14a1.47,1.47,0,0,0-1.65-1.66H140.7v-4.22h7.24c3.16,0,4.6,1.36,4.6,4.22v2.19a12,12,0,0,1-.31,2.71h.16a16.78,16.78,0,0,1,15.45-10c9.36,0,12.6,5.36,12.6,14.71V186h6.41v4.22H175.31V167.42c0-6-1-11.24-8.29-11.24-8.38,0-14.41,7.39-14.41,15.76v14H159v4.22h-18Z"/><path d="M191.9,186h6.41V156.48h-6.79v-4.22h11.92V186h6.4v4.22H191.9ZM198,137.18h5.8v6.41H198Z"/><path d="M215.57,186H222V156.48H215.2v-4.22H222v-2c0-12,8.45-13.5,12.37-13.5a18.1,18.1,0,0,1,3.09.23v4.45a12.33,12.33,0,0,0-2.56-.23c-2.57,0-7.77.91-7.77,9v2h9.65v4.22h-9.65V186h7.54v4.22H215.57Z"/><path d="M260.59,151.35c10.49,0,15.91,8.07,15.91,17.5a22,22,0,0,1-.22,2.41H247.17c.23,9.73,6.86,15.24,14.7,15.24A17.76,17.76,0,0,0,273.41,182l2.34,3.85a21.5,21.5,0,0,1-14,5.28c-11.31,0-19.83-8.15-19.83-19.84C241.89,158.82,250.34,151.35,260.59,151.35Zm10.56,16.14c-.3-8-5.13-11.84-10.71-11.84-6.33,0-11.84,4.15-13,11.84Z"/><path d="M283.82,186h5.88V158.14a1.48,1.48,0,0,0-1.66-1.66h-5.13v-4.22h7.17c3.16,0,4.59,1.28,4.59,4.3v2.56a27.5,27.5,0,0,1-.15,2.87h.15c1.89-5.73,6.11-10.11,12-10.11a11.43,11.43,0,0,1,2.11.23v5a14.85,14.85,0,0,0-2-.15c-8.53,0-12,9.58-12,17.12V186h5.88v4.22H283.82Z"/><path d="M.38,49.47H6.79V4.9H0V.68H11.91V21.49a15.81,15.81,0,0,1-.3,3.09h.15A16.91,16.91,0,0,1,27,14.86c9.35,0,12.67,5.35,12.67,14.7V49.47h6.48v4.22H34.54V30.92c0-6-.91-11.24-8.22-11.24-8.15,0-14.41,6.79-14.41,15.84V49.47h6.41v4.22H.38Z"/><path d="M51.2,49.47h6.41V20H50.82V15.76H62.74V49.47h6.41v4.22h-18ZM57.31.68h5.8V7.09h-5.8Z"/><path d="M78.35,47.51h5.88L77.67,63.42H73.22Z"/><path d="M112.28,49.47h6.41V20H111.9V15.76h11.91V49.47h6.41v4.22H112.28ZM118.39.68h5.8V7.09h-5.8Z"/><path d="M140.33,0h5.43l-4.83,15.31h-4.15Z"/><path d="M152.09,49.47h6.41V21.64A1.48,1.48,0,0,0,156.84,20h-5.13V15.76H159c3.17,0,4.6,1.36,4.6,4.22v2.19a12.42,12.42,0,0,1-.3,2.71h.15c2-5.12,8.07-10,14.1-10,6.87,0,10.48,3.24,11.54,9.65h.15c2.11-5.05,7.62-9.65,14-9.65,9.12,0,12.52,5.35,12.52,14.7V49.47h6.41v4.22H210.61V30.84c0-6.18-1.28-11.31-8.15-11.31-7.69,0-12.74,8.14-12.74,16V49.47h6.41v4.22H184.59V30.84c0-5.73-.75-11.31-8-11.31-7.77,0-13,8.22-13,16.14v13.8H170v4.22H152.09Z"/></svg>