<svg xmlns="http://www.w3.org/2000/svg" viewBox="0 0 470.09 77.76"><defs><style>.cls-1{fill:#fcc842;}</style></defs><g id="Layer_2" data-name="Layer 2"><g id="Layer_1-2" data-name="Layer 1"><path d="M33.27,62.26c2.2,0,6.59-.88,6.59-7.95V27.86H34.64V25.72h7.52V54.25c0,9.11-5.93,10.15-8.72,10.15a7.76,7.76,0,0,1-1.38-.11V62.15A6.21,6.21,0,0,0,33.27,62.26Zm6.26-47.52h3v4h-3Z"/><path d="M63.56,25.06c7.46,0,11.19,5.87,11.19,12.51,0,.6-.11,1.48-.11,1.48h-22c0,8,5.38,12.51,11.74,12.51a12.44,12.44,0,0,0,8.51-3.45L74.15,50a15,15,0,0,1-9.77,3.78c-7.73,0-14.15-5.6-14.15-14.32C50.23,30.22,56.54,25.06,63.56,25.06Zm8.78,11.85c-.27-6.69-4.28-9.71-8.83-9.71-5,0-9.72,3.29-10.7,9.71Z"/><path d="M80,51h4.94V29.07a1.07,1.07,0,0,0-1.21-1.21h-4V25.72H84c2.25,0,3.18.93,3.18,3v1.81A11.52,11.52,0,0,1,87,32.8h.11a12.65,12.65,0,0,1,11.64-7.74c7.13,0,9.05,4.22,9.05,10.7V51h4.94v2.14h-7.25V36.58c0-4.77-.6-9.27-6.74-9.27-6.54,0-11.53,5.6-11.53,12.24V51h4.94v2.14H80Z"/><path d="M116.24,51h4.94V29.07A1.07,1.07,0,0,0,120,27.86h-4V25.72h4.33c2.25,0,3.18.93,3.18,3v1.81a12,12,0,0,1-.21,2.25h.1A12.67,12.67,0,0,1,135,25.06c7.13,0,9.05,4.22,9.05,10.7V51H149v2.14h-7.24V36.58c0-4.77-.61-9.27-6.75-9.27-6.53,0-11.53,5.6-11.53,12.24V51h4.94v2.14H116.24Z"/><path d="M152.51,51h4.94V27.86h-5.21V25.72h7.52V51h4.94v2.14H152.51Zm4.61-36.27h3v4h-3Z"/><path d="M168.7,51h4.94V27.86h-5.21V25.72h5.21V24.24c0-8.62,5.6-9.66,8.12-9.66a10.73,10.73,0,0,1,2,.16v2.14a9.19,9.19,0,0,0-1.81-.16c-2,0-6,.82-6,7.46v1.54h7.29v2.14H176V51h5.76v2.14h-13Z"/><path d="M200.31,25.06c7.46,0,11.19,5.87,11.19,12.51,0,.6-.11,1.48-.11,1.48h-22c0,8,5.38,12.51,11.74,12.51a12.44,12.44,0,0,0,8.51-3.45L210.9,50a15,15,0,0,1-9.77,3.78c-7.73,0-14.15-5.6-14.15-14.32C187,30.22,193.29,25.06,200.31,25.06Zm8.78,11.85c-.27-6.69-4.28-9.71-8.84-9.71-5,0-9.71,3.29-10.69,9.71Z"/><path d="M217.05,51h4.39V29.07a1.07,1.07,0,0,0-1.21-1.21h-4V25.72h4.33c2.25,0,3.18.93,3.18,3v1.92c0,1.26-.11,2.25-.11,2.25h.11c1.37-4.23,4.34-7.41,8.67-7.41a8.73,8.73,0,0,1,1.59.16V28a9,9,0,0,0-1.26-.11c-6.42,0-9,7.84-9,13.44V51h4.39v2.14H217.05Z"/><path d="M253.47,18.15H248.8V14h10V26.87a15.82,15.82,0,0,1-.16,2.3h.11a10,10,0,0,1,8.94-4.82c7.52,0,12.24,5.92,12.24,14.54,0,8.83-5.33,14.54-12.68,14.54a9.7,9.7,0,0,1-8.78-5h-.11a14.45,14.45,0,0,1,.17,2.19v2.2h-5Zm13.06,30.67c4.33,0,8-3.57,8-9.88,0-6-3.23-9.93-7.84-9.93-4.12,0-8,2.91-8,10C258.63,43.94,261.2,48.82,266.53,48.82Z"/><path d="M299.4,24.35c8.28,0,15,6.09,15,14.48s-6.7,14.6-15,14.6-15-6.15-15-14.6S291.11,24.35,299.4,24.35Zm0,24.47a9.63,9.63,0,0,0,9.55-10,9.56,9.56,0,1,0-19.1,0C289.85,44.65,294.13,48.82,299.4,48.82Z"/><path d="M316.9,25h12.4v4.12h-3.73l4.72,16.13a15.32,15.32,0,0,1,.44,2.58h.17a16,16,0,0,1,.43-2.58l6.1-20.19h4.82l6.09,20.19a15.32,15.32,0,0,1,.44,2.58H349a15.32,15.32,0,0,1,.44-2.58l4.77-16.13h-3.79V25h12.41v4.12h-3.46l-7.13,23.65h-5.93l-5.87-18.55a22.12,22.12,0,0,1-.49-2.63h-.12a22.12,22.12,0,0,1-.49,2.63l-5.87,18.55h-5.93l-7.13-23.65H316.9Z"/><path d="M365.52,43.82h4.67v1.82c0,2.36,3.29,3.45,6.36,3.45s5.6-1.26,5.6-3.56c0-2.8-3.07-3.68-6.91-5.05-4.12-1.54-8.67-3.4-8.67-8.45,0-5.49,5.43-7.68,10.26-7.68,3.89,0,9.6,1.53,9.6,5.59v3.35h-4.66V31.48c0-1.7-2.2-2.85-4.89-2.85s-4.94,1.09-4.94,3.34c0,2.64,3.08,3.73,6.42,4.89,4.28,1.42,9.17,3.23,9.17,8.39s-4.83,8.18-11.14,8.18c-5.05,0-10.87-2.25-10.87-6.64Z"/><path d="M405.86,24.35c7.9,0,12,5.81,12,13,0,.71-.16,2-.16,2h-20.3c.32,6.15,4.66,9.44,9.6,9.44a13.48,13.48,0,0,0,8.28-3.13l2.2,3.9a17,17,0,0,1-10.81,3.84C398,53.43,392,47.12,392,38.89,392,30.05,398,24.35,405.86,24.35ZM412.38,36c-.16-4.88-3.12-7.41-6.63-7.41-4.06,0-7.36,2.75-8.13,7.41Z"/><path d="M422.92,48.65h4.17V30.33a1.07,1.07,0,0,0-1.2-1.21h-3.46V25h6.25c2.42,0,3.57,1,3.57,3.24V30a16,16,0,0,1-.11,1.92h.11c1.26-4.06,4.5-7.24,8.78-7.24a10.36,10.36,0,0,1,1.37.1v5.27a7.23,7.23,0,0,0-1.54-.16c-5.92,0-8.45,6-8.45,11.41v7.35h4.12v4.12H422.92Z"/><path class="cls-1" d="M7.63,51.9C7.63,42.12,0,41.18,0,41.18V35.35s7.63-.94,7.63-10.81V16.83C7.63,1.32,17.41,0,20.91,0h1.44V5.26h-.9c-2.15,0-8.17.85-8.17,11.76v9.21c0,9.22-7.18,11.94-7.18,11.94v.19s7.18,2.35,7.18,11.94V60.65c0,10.9,6,11.75,8.17,11.75h.9v5.26a8.73,8.73,0,0,1-1.44.1c-3.5,0-13.28-1.32-13.28-16.93Z"/><path class="cls-1" d="M448.55,72.4c2.15,0,8.25-.85,8.25-11.75V50.3c0-9.59,7.18-11.94,7.18-11.94v-.19s-7.18-2.72-7.18-11.94V17c0-10.91-6.1-11.76-8.25-11.76h-.9V0h1.43c3.59,0,13.38,1.32,13.38,16.83v7.71c0,9.87,7.63,10.81,7.63,10.81v5.83s-7.63.94-7.63,10.72v8.93c0,15.61-9.79,16.93-13.38,16.93a8.67,8.67,0,0,1-1.43-.1V72.4Z"/></g></g></svg>