<svg xmlns="http://www.w3.org/2000/svg" viewBox="0 0 111.18 86.65"><defs><style>.cls-1{fill:#fcc842;}.cls-2{stroke:#000;stroke-miterlimit:10;stroke-width:2px;}</style></defs><g id="Layer_2" data-name="Layer 2"><g id="Layer_1-2" data-name="Layer 1"><path class="cls-1" d="M89.6,80.78c2.16,0,8.27-.93,8.27-12.88V56.56c0-10.51,7.2-13.09,7.2-13.09v-.21s-7.2-3-7.2-13.08V20.08c0-12-6.11-12.89-8.27-12.89h-.9V1.42h1.44c3.6,0,13.4,1.45,13.4,18.45v8.45c0,10.82,7.64,11.85,7.64,11.85v6.39s-7.64,1-7.64,11.75V68.1c0,17.11-9.8,18.55-13.4,18.55a8.73,8.73,0,0,1-1.44-.1V80.78Z"/><path class="cls-1" d="M22.86,80.68v5.87a9,9,0,0,1-1.46.1c-3.66,0-13.63-1.47-13.63-18.86v-10c0-10.9-7.77-12-7.77-12V39.4s7.77-1,7.77-12V18.76C7.77,1.47,17.74,0,21.4,0h1.46V5.87H22c-2.2,0-8.41.94-8.41,13.1V29.23c0,10.27-7.32,13.31-7.32,13.31v.21s7.32,2.62,7.32,13.31V67.58c0,12.16,6.21,13.1,8.41,13.1Z"/><path d="M30.33,68.25c2.56,0,7.53-.91,7.53-8.51V29.37H32V25.7H42.31V59.81c0,10.93-7.79,12.31-11.52,12.31a8.54,8.54,0,0,1-1.9-.2v-3.8A7.38,7.38,0,0,0,30.33,68.25Z"/><path class="cls-2" d="M50.5,18.64H44V14.48H55.43V32.93a21.19,21.19,0,0,1-.22,3.12h.14a13.51,13.51,0,0,1,12.46-7.58c9.78,0,15.86,8,15.86,19.64,0,11.83-6.88,19.56-16.44,19.56a13.38,13.38,0,0,1-12-7.66h-.15a21.42,21.42,0,0,1,.22,3.13v3.64H50.5Zm16.37,44.5c6.44,0,11.8-5.51,11.8-15,0-9.15-4.78-15-11.58-15-6.09,0-11.81,4.46-11.81,15.1C55.28,55.7,59.12,63.14,66.87,63.14Z"/></g></g></svg>