<svg xmlns="http://www.w3.org/2000/svg" viewBox="0 0 110.19 84.55"><defs><style>.cls-1{stroke:#000;stroke-miterlimit:10;}.cls-2{fill:#fcc842;}</style></defs><g id="Layer_2" data-name="Layer 2"><g id="Layer_1-2" data-name="Layer 1"><path d="M29.38,68.69c3,0,9.13-1,9.13-9.46V27.78H31.28V25.23H41.71V59.16c0,10.83-8.22,12.07-12.1,12.07a12.44,12.44,0,0,1-1.9-.13V68.55A9.14,9.14,0,0,0,29.38,68.69Z"/><path class="cls-1" d="M49.72,17.39H43.21V13.32H54.65v18a20.48,20.48,0,0,1-.22,3.06h.14A13.5,13.5,0,0,1,67,27c9.78,0,15.86,7.85,15.86,19.2,0,11.56-6.88,19.13-16.44,19.13a13.36,13.36,0,0,1-12-7.49h-.14a21.37,21.37,0,0,1,.21,3.05v3.56H49.72ZM66.09,60.88c6.44,0,11.8-5.38,11.8-14.69,0-8.94-4.78-14.69-11.58-14.69-6.09,0-11.81,4.36-11.81,14.76C54.5,53.61,58.34,60.88,66.09,60.88Z"/><path class="cls-2" d="M87.16,78.12c2.3,0,8.83-.9,8.83-12.57V54.49c0-10.26,7.68-12.77,7.68-12.77v-.2S96,38.6,96,28.75V18.89C96,7.23,89.46,6.33,87.16,6.33h-1V.69h1.54c3.84,0,14.3,1.41,14.3,18v8.25c0,10.56,8.15,11.56,8.15,11.56v6.24S102,45.74,102,56.2v9.55c0,16.7-10.46,18.1-14.3,18.1a10,10,0,0,1-1.54-.1V78.12Z"/><path class="cls-2" d="M24.4,78.72v5.73a10.38,10.38,0,0,1-1.57.1c-3.9,0-14.54-1.43-14.54-18.4V56.43C8.29,45.8,0,44.78,0,44.78V38.44s8.29-1,8.29-11.76V18.3C8.29,1.43,18.93,0,22.83,0H24.4V5.73h-1c-2.34,0-9,.92-9,12.77v10c0,10-7.8,13-7.8,13v.2s7.8,2.56,7.8,13V65.94c0,11.86,6.64,12.78,9,12.78Z"/></g></g></svg>