<svg xmlns="http://www.w3.org/2000/svg" viewBox="0 0 240.98 240.97"><g id="Layer_2" data-name="Layer 2"><g id="contact"><path d="M213.85,0H27.13A27.13,27.13,0,0,0,0,27.13V213.84A27.13,27.13,0,0,0,27.13,241H213.85A27.13,27.13,0,0,0,241,213.84V27.13A27.13,27.13,0,0,0,213.85,0Zm-130,192.26H51.79V90.71H83.87ZM67.67,77.45A18.57,18.57,0,1,1,86.23,58.88,18.57,18.57,0,0,1,67.67,77.45Zm134,114.81H169.57V139.83c0-11.68-2.35-23.88-18.3-23.88-10.79,0-17.48,9.33-17.48,24.39l0,51.92H103.83V90.71h29.93v13c1.94-2.79,7.67-9,13-11.93,10.08-5.48,20-4.33,22.8-4.21,16.71.72,32.09,18.37,32.09,36.09Z"/></g></g></svg>