<svg xmlns="http://www.w3.org/2000/svg" viewBox="0 0 474 668.49"><defs><style>.cls-1{fill:#696969;}</style></defs><g id="Layer_2" data-name="Layer 2"><g id="Black_Transparent_Vectors" data-name="Black / Transparent Vectors"><g id="CSS"><g id="CSS_Badge" data-name="CSS Badge"><g id="Badge"><path d="M0,130.49l42,484,195.34,54,195.66-54,41-484ZM105.12,439.12l61.8-.08,2.64,47.14,66.94,17.88L301.41,486,307,410.2H102.48l-5.27-62.37,114.53-57.64H92L86.91,230l149.59.16,147.81.15-5.13,59.84L259.62,350.41l114.41,0L358.52,530.23l-122,34.08L112.77,530.25Z"/><polygon class="cls-1" points="307.03 410.2 301.41 486.01 236.5 504.06 236.5 410.2 307.03 410.2"/><polygon class="cls-1" points="427 172.49 394.05 582.72 236.78 628.49 236.5 628.41 236.5 564.31 358.52 530.23 374.03 350.45 259.62 350.41 379.18 290.17 384.31 230.33 236.5 230.18 236.5 172.49 427 172.49"/></g></g><polygon points="118.26 23.69 118.26 65.6 178.13 65.6 178.13 89.19 94.76 89.19 94.76 0.19 178.13 0.19 178.13 23.69 118.26 23.69"/><polygon points="215.46 23.75 215.46 34 275.33 34 275.33 89.38 191.71 89.38 191.71 65.63 251.59 65.63 251.59 55.5 191.71 55.5 191.71 0 275.33 0 275.33 23.75 215.46 23.75"/><polygon points="311.33 23.75 311.33 34 371.21 34 371.21 89.38 287.58 89.38 287.58 65.63 347.46 65.63 347.46 55.5 287.58 55.5 287.58 0 371.21 0 371.21 23.75 311.33 23.75"/></g></g></g></svg>