<svg xmlns="http://www.w3.org/2000/svg" viewBox="0 0 474 668.27"><defs><style>.cls-1{fill:#696969;}</style></defs><g id="Layer_2" data-name="Layer 2"><g id="Black_Transparent_Vectors" data-name="Black / Transparent Vectors"><g id="HTML_logo" data-name="HTML logo"><g id="HTML_Badge" data-name="HTML Badge"><path d="M0,130.27l42,484,194.5,54,196.5-54,41-484ZM114.35,529.92l-7.6-91.13,61.77-.08,2.9,46.85,65.08,18.12L303,485.54l5-75.3-71.48-.13L104,409.88,88.48,229.67l148,0,149.56,0-4.95,60.37-144.61,0H157.79L162,349.7l74.5,0,139.23,0L360.4,529.83,236.5,564Z"/><polygon class="cls-1" points="307.98 410.24 302.96 485.54 236.5 503.68 236.5 410.11 307.98 410.24"/><polygon class="cls-1" points="427 172.27 394.05 582.5 236.78 628.27 236.5 628.19 236.5 563.96 360.4 529.83 375.73 349.75 236.5 349.72 236.5 290.12 381.11 290.1 386.06 229.73 236.5 229.7 236.5 172.27 427 172.27"/></g><polygon points="343.88 0 343.88 89 314.88 89 314.88 44.47 307.44 56.85 294.17 78.94 280.9 56.86 273.38 44.33 273.38 89 244.38 89 244.38 0 273.29 0 273.38 0.16 294.17 34.76 314.88 0.28 315.05 0 343.88 0"/><polygon points="273.38 0 273.38 0.16 273.29 0 273.38 0"/><polygon points="315.05 0 314.88 0.28 314.88 0 315.05 0"/><polygon points="427.88 60.25 427.88 89.25 356.38 89.25 356.38 0 385.38 0 385.38 60.25 427.88 60.25"/><polygon points="106.38 0 106.38 31.25 75.13 31.25 75.13 0 46.13 0 46.13 89 75.13 89 75.13 60.25 106.38 60.25 106.38 89 135.38 89 135.38 0 106.38 0"/><polygon points="231.63 0 231.63 29 202.88 29 202.88 89 173.88 89 173.88 29 147.63 29 147.63 0 231.63 0"/></g></g></g></svg>