<svg xmlns="http://www.w3.org/2000/svg" viewBox="0 0 418.55 565.05"><g id="Layer_2" data-name="Layer 2"><g id="Black_Transparent_Vectors" data-name="Black / Transparent Vectors"><g id="Java_logo" data-name="Java logo"><path d="M388.06,530.91c10.89-4.24,21.77-9.66,30.33-18a.09.09,0,0,1,.16.05c0,3.14-.9,5.28-2.59,8.12-4,6.71-9.71,11.63-16.35,15.38-11.66,6.58-23.16,10.62-37.35,14.71a216.23,216.23,0,0,1-22.5,4.89c-11.34,2-44,5.56-51.93,6.51-17.72,2.11-83,3.14-107.86,2-18.81-.86-56.48-2.4-82.44-8.07-6-1.3-11.7-3.61-17.52-5.51a4,4,0,0,1-1.75-2c3.17.4,7.2,1,10.37,1.39,8.92,1.12,29.08,3.82,49.5,4.94,7.88.43,38.15,1.13,57,1.3,25.35.24,64.74-2.28,87.66-4.47C298.46,550.7,352.2,544.86,388.06,530.91Z"/><path d="M90.08,480.82c.1.61-7.66,1.42-11.5,2.05C65.65,485,53.23,488.7,41.89,495.49a14.47,14.47,0,0,0-3.81,3.13c-2.19,2.71-2,4.78.87,6.81a24.74,24.74,0,0,0,6.1,3.06c18.6,6.58,44.36,9.26,59.11,11.21,11.4,1.51,24,1.54,35.46,2.23,22.74,1.37,59.58,1.17,79.43.79,12.15-.24,24.21-1.13,36.36-1.79,24.1-1.31,64.45-5.62,64.45-5.62,10-1.42,20.37-3.32,30.29-5.26,8.1-1.58,17.42-4.14,23.42-6.69,3.33-1.41,8.21-4.46,10.64-7.14,5.63-6.24-1-12.28-.19-13s5.79,3.39,7.91,5.52c2.32,2.31,2.54,8.89-.82,11.84a60.71,60.71,0,0,1-11.47,8.34,117.29,117.29,0,0,1-25.78,9.77c-9.46,2.55-19.17,5-28.75,7.07-8.25,1.74-26.12,4.81-26.12,4.81-36.18,5.77-80.1,6.7-80.1,6.7-30.73.81-66.2.55-81.57-.09-9.66-.4-19.72-.9-29.36-1.66s-40.37-4.17-46.95-5c-19.19-2.51-34-4.66-45.92-7.64a34.71,34.71,0,0,1-12.17-6.18C-.45,513.79-.9,510,1.56,506.33a28.09,28.09,0,0,1,8.49-7.94c11.61-7.5,18.27-9.63,28.45-13.35,8-2.94,18-4.72,23.08-5.65C81,475.8,89.91,479.71,90.08,480.82Z"/><path d="M214.74,483.08c-11.81.38-27.58,1-49.77-1.32-13.07-1.39-56.15-8.92-57.32-26.12-.27-4,3.54-7.67,6.76-10.1,6-4.54,18.5-9,19.28-8,.4.48-6.16,3.59-4.87,8.3.74,2.73,9,5.81,13.06,6.41,9.36,1.37,16.71,2.75,26.13,3.5,10.92.87,21.72.85,32.67.85,24.57,0,47.64-4.39,64.74-7.41,3.28-.58,3.53-.25,5.29.94,6.47,4.39,28,13.71,28,13.91C298.59,465.46,253.15,481.83,214.74,483.08Z"/><path d="M205.3,399.18c31.76-1.05,79.63-9.8,80.75-9.86,6.31,6.05,14.39,10.7,22.82,14.66-5,1.43-69.18,18.65-137.91,16.4C129.74,419,104,410.58,94.74,403,90,399,90.09,392.7,94.21,388.58c8.13-8.13,25.62-13.51,25.82-13.16s-3,3.58-4.43,5.7c-3.89,5.74-1.33,11,7.19,13.2C139.09,398.57,170.37,400.34,205.3,399.18Z"/><path d="M143.63,360c-8.25-.12-55.8-1-82-8.7-4.48-1.33-11.18-3.69-14.63-7.12-2.11-2.09-1.54-5.39.68-7.32,5-4.33,24.11-14.5,55.88-21.89,20.1-4.66,40.22-5,40.26-4.38s-7.94,2.3-10.52,2.9c-14,3.26-36,11.77-41.81,15.44-6.74,4.24-6.07,8.14-2.11,10,13.57,6.43,51.15,9,91.35,7.33,50.1-2,101.55-7.23,120.53-10.38,8.79-1.45,26.71-4.32,26.85-3.79.2.75-18.6,8.83-20.94,11.41-1.16,1.29-11.24,3.62-14.48,4.26-20.87,4.18-39.87,8.19-76.55,10.44C186.61,360,154.8,360.11,143.63,360Z"/><path d="M366.94,403.49c-13.15,6.35-37.1,12.95-37.49,12.15-.3-.63,3.15-3.57,3.59-3.84,0,0,23.29-12.67,33.49-21,8.8-7.21,17.1-15.08,22.87-25.09,4.72-8.19,6.9-16.61,5.3-25.89-1.79-10.37-8.15-17.69-17.17-22.78-9.54-5.39-20.44-5.95-30.74-2.9-2.2.65-5.19,1.49-5.35,1-.22-.65,6.76-5.89,12-7.56,7-2.24,15.14-2.46,21.79-2.36a46.45,46.45,0,0,1,32.54,13.95c11.57,11.63,11.71,24.15,9.84,34.51-2.67,14.83-16.13,28-25.76,35.35C386.08,393.37,373.66,400.24,366.94,403.49Z"/><path d="M268,251.35c9.72,15.5,8.76,30.62-.91,45.49-7.17,11-17.06,19.26-27.78,26.61-2.27,1.55-4.53,3.13-6.82,4.66a4.52,4.52,0,0,1-2.25.77c2.34-2.68,4.85-5.23,7-8.08,6.66-8.92,10.58-18.74,9.1-30.13-1.11-8.57-5.64-15.42-11.1-21.79-9.29-10.85-17.14-22.6-21.28-36.42-5.38-18-2.92-34.92,7.54-50.57,8.83-13.22,20.78-23.1,33.89-31.75a246.77,246.77,0,0,1,48.85-24.51c9.57-3.62,19.38-6.62,29.1-9.88a1.85,1.85,0,0,1,1.44.2c-5.35,3.36-10.68,6.75-16.05,10.07-15,9.23-29.82,18.66-43.48,29.77-9.81,8-19.19,16.44-26,27.33-4.83,7.7-7.07,16-5.67,25a45,45,0,0,0,7.24,17.71C256.34,234.35,262.16,242.74,268,251.35Z"/><path d="M209.77,308.05a17.49,17.49,0,0,1-3.16-2c-10.24-9.73-20.6-19.35-30.59-29.33a199.27,199.27,0,0,1-26.43-31.92c-5.18-8-9.65-16.23-12.19-25.5-4.19-15.34-1.37-29.27,7.74-42.15,8.49-12,18.89-22.16,30.21-31.41,15.27-12.48,30.83-24.62,46-37.28,14.11-11.81,27.17-24.67,36.6-40.76,8.39-14.31,12.77-29.66,11.71-46.31-.41-6.41-1.45-12.78-2.19-19.17-.07-.59,0-1.2,0-2.25a41.83,41.83,0,0,1,7.87,12,67.74,67.74,0,0,1,5,42.81c-3.74,18.82-12.92,34.84-24.48,49.72a211.31,211.31,0,0,1-26.36,28c-7.15,6.39-14.64,12.39-22,18.55-11.85,9.92-23,20.47-31.57,33.52-5.24,8-9.19,16.53-10.47,26a58,58,0,0,0,3.54,29.51c4.13,10.5,10,20,16.19,29.35q10.57,15.81,21.06,31.7a69.86,69.86,0,0,1,3.54,6.75C209.74,308.07,209.77,308.05,209.77,308.05Z"/></g></g></g></svg>