<svg xmlns="http://www.w3.org/2000/svg" viewBox="0 0 474 668.4"><defs><style>.cls-1{fill:#696969;}</style></defs><g id="Layer_2" data-name="Layer 2"><g id="Black_Transparent_Vectors" data-name="Black / Transparent Vectors"><g id="JS_logo" data-name="JS logo"><g id="JS_Badge" data-name="JS Badge"><path d="M0,130.4l42,484,195.34,54L433,614.4l41-484ZM400.06,282.29l-92,.15L308,373.66l85.69-13-15.47,169.5L255.59,564.46l-.05-54.8,77.71-21.81,7-67.49-84.78,13.33.11-203.81,148.89-.07ZM218.91,564.22,75.71,524.89l-.22-54.66L167,495.41V230.34h51.94Z"/><path class="cls-1" d="M236.5,172.4V628.31l.27.09L394,582.62,427,172.4Zm71.59,110L308,373.66l85.69-13-15.47,169.5L255.59,564.46l-.05-54.8,77.71-21.81,7-67.49-84.78,13.33.11-203.81,148.89-.07-4.42,52.48Z"/></g><polygon points="258.37 23.75 258.37 34 318.25 34 318.25 89.38 234.62 89.38 234.62 65.63 294.5 65.63 294.5 55.5 234.62 55.5 234.62 0 318.25 0 318.25 23.75 258.37 23.75"/><polygon points="221.87 0 221.87 89.5 158.75 89.5 158.75 65.5 198.12 65.5 198.12 0 221.87 0"/></g></g></g></svg>