<svg xmlns="http://www.w3.org/2000/svg" viewBox="0 0 1294.79 367.15"><defs><style>.cls-1{fill:#e6e6e6;}.cls-2{fill:#414044;}.cls-3{fill:#c0bdba;}</style></defs><g id="Layer_2" data-name="Layer 2"><g id="Black_Transparent_Vectors" data-name="Black / Transparent Vectors"><g id="mongoDB"><path class="cls-1" d="M92.35,310.39c-1.83-1.47-3.75-3.26-5.75-8-2.74-6.39-4.85-15.92-5.44-33.79,0-.05-.07-.05-.07,0-1.27,10-4.24,39.73-6.79,45.18a.39.39,0,0,1-.41.22,4.11,4.11,0,0,1-1.34-.64.66.66,0,0,0,.12.33c3.6,5.64,5.17,17.7,6.19,41.12a.88.88,0,0,0,.7.78l8.88,2.79a.21.21,0,0,0,.27-.17c.67-13.71-4.25-36.36,5.32-47.24C93.57,311.16,93.12,311,92.35,310.39Z"/><path class="cls-2" d="M74.3,313.81c2.55-5.45,5.52-35.14,6.79-45.18,0,0,.07,0,.07,0L78.9.19c-.13-.32-.43-.21-.43.15a21.44,21.44,0,0,1-5.78,14.43C68,19.5,45.86,37.12,30.44,63.35,15.85,88.17,4,120.53.72,152.79c-1.17,11.62-2,48,6.79,71.8C19.07,255.76,30,272.91,56.16,299c3.81,3.81,12.65,12,16.39,14.36a4.11,4.11,0,0,0,1.34.64A.39.39,0,0,0,74.3,313.81Z"/><path d="M158.87,150.22c-4.62-34.78-18.36-64.2-33.54-86.63A264.68,264.68,0,0,0,104.13,36C95.53,26.65,89.89,27,78.9.19l2.26,268.45c.59,17.87,2.7,27.4,5.44,33.79,2,4.7,3.92,6.49,5.75,8,.77.61,1.22.77,1.68.61a7.84,7.84,0,0,0,1.66-1.17c5.33-4.1,11.1-9.14,16-13.77,16-15.08,26.56-31.25,34.75-51.24A187.71,187.71,0,0,0,158.87,150.22Z"/><path class="cls-3" d="M1262.18,294.19c-15.9,7-31.89,8.89-48.52,8.29-17.19-.61-34.42-.07-51.64-.24-3.33,0-8.13,1.65-8.94-3.71-.72-4.72,2.1-9.45,6.34-9.69,17.58-1,16.62-14,16.77-25.5.41-32.73.18-65.48.09-98.21,0-12.1-2.81-14.75-14.83-15.33-3.76-.18-9.07.69-8.26-5.43.61-4.59,3.31-7.93,9.2-7.86,25.11.31,50.24-.1,75.34.49,10.33.24,20.58,2.1,29.6,8.27,18.86,12.89,18.75,41.75,2.48,56-2.09,1.82-4.24,3.57-6.46,5.45,2,3.81,5.66,5.17,8.79,6.6,28.66,13.12,29.72,51.39,5.46,71.07C1273.08,288,1268.55,292,1262.18,294.19Zm2.11-33.4c2.41-20.33-8.36-34.07-28.6-39.5-7.79-2.09-15.62-1.76-23.48-2-5.69-.21-8,2.22-8.41,7.9-1.13,14.68-.18,29.29.83,43.89.45,6.55,3.33,12.28,10.18,14.15C1233.84,290.35,1257.61,287.44,1264.29,260.79Zm-60-83.56c0,2.25-.07,4.5-.1,6.76-.37,23.58,2.3,25.95,26,22,8.19-1.37,16.38-4.09,20.16-12.17,7.29-15.53.46-32.66-15.12-40a42.21,42.21,0,0,0-18.8-3.93c-10.84.08-11.73.87-12,11.34C1204.38,166,1204.35,170.75,1204.28,177.23Z"/><path class="cls-3" d="M1087.8,140.86c18.68,8.11,33.43,19.71,41.46,38.18,7.6,17.47,8.67,35.58,5.71,54.48-4.43,28.2-21,46.83-45.34,58.78a93.18,93.18,0,0,1-39.88,10c-23.7.26-47.41.11-71.12,0-3.37,0-8.3,1.28-8.51-4.24-.17-4.69,1.68-9.16,7.3-9.8,10.14-1.16,12.63-7.48,12.59-16.57-.16-34.71,0-69.42,0-104.13,0-13.85-3.09-16.88-16.6-17.75-3.38-.21-8.68.86-8.07-4.6.54-4.81,3.74-8.73,9.74-8.65,14.67.18,29.36.74,44,.21C1041.93,135.89,1064.71,135.07,1087.8,140.86ZM1054.94,287.4c3.84-.88,7.66-1.84,11.51-2.64,15-3.13,24.39-13.39,31.5-25.8,9-15.72,10.85-33.29,8.61-50.81-2.1-16.41-8.94-31-22.22-42.1-16.42-13.76-35.49-17.14-56-16.26-5.47.23-8.44,2.55-9.11,7.86a83.47,83.47,0,0,0-1,10.07c-.07,30.74,0,61.48-.09,92.23a40.77,40.77,0,0,0,2.15,14.13c1.5,4.1,3,8.94,8.22,9.95C1036.76,285.61,1044.91,288.15,1054.94,287.4Z"/><path class="cls-2" d="M292.29,302.34c-4-.44-8.23,1.43-10-2.38-2.23-4.8-.37-8.07,5.17-9.07,7.9-1.42,11.21-6.1,11.08-14.33-.23-14.11.82-28.23-.09-42.35-.68-10.47-3.65-20.34-14.14-24-10.77-3.78-21.11-.23-29.94,7.11-2.23,1.86-2.47,4.31-2.47,6.89,0,18.93.21,37.86,0,56.78-.09,6.9,4.36,8.64,9.47,9.8,3.84.87,7.43,1.44,6.58,6.69-.8,5-4.52,4.92-8.35,4.9-13.84-.05-27.68,0-41.52-.05-3.33,0-7.1.53-7.66-4.44s2.46-6.52,6.51-7.05c7.45-1,10.33-5.49,11-12.63,1.78-18.9,1-37.82.58-56.71-.16-8.23-7.73-10.34-14.33-12.19-2.59-.73-5.17-1.08-5.19-4.39a4.47,4.47,0,0,1,4.25-4.57c12.87-.21,24.52-5.47,36.29-9.11,4.61,4.71.71,10.46,3.7,15.49,5.91-4.43,12.27-7.75,18.68-11,16.74-8.48,29.31-6.23,41.14,8.33,4,4.94,6.77,2.64,10.61.33,10.28-6.18,20.12-13.55,33-13.33,15.1.26,27.53,11.21,31.29,25.84,4.89,19,2.47,38.23,2.52,57.33,0,9,2.32,14.79,11.62,16.46,3.81.68,6.17,2.41,5.66,6.83-.55,4.8-3.93,4.81-7.44,4.81-13.56,0-27.12,0-40.68-.06-3.05,0-6.46.37-6.91-4.21-.39-4,.9-6.31,5.1-7.29,7.91-1.85,10.46-7.22,10.19-15.14-.46-13.26-.07-26.55-.2-39.83-.11-11.83-5.18-20.63-16.36-25.32-7.73-3.25-23,.92-29.8,7.82a6.1,6.1,0,0,0-1.73,5.42c2.46,17.73.79,35.54.93,53.31.06,7.44,2.71,11.86,9.89,13.41,3.95.85,6.79,2.07,6.17,7.15-.69,5.65-4.69,4.71-8.19,4.73C316.83,302.39,305,302.34,292.29,302.34Z"/><path class="cls-2" d="M721.59,311c3.44-2.43,6.4-4.5,9.55-6.7-3.9-3.7-7.5-6.78-10.72-10.21-5.26-5.61-4.44-9.91,1.53-14.77,3.8-3.1,9.84-3.14,12.14-9-8.72-5-15.87-11-20.33-20.33-8.8-18.48,1.38-43.39,19.85-51.63s35.29-9.35,53.63-.92c10.08,4.64,20.89,3.48,30.43-3.21,5.25,12.59-.42,19.44-17.7,21.89-1.52,7.65.77,15.66-1.84,23.35-6.75,19.85-21.91,28.21-41.42,30.59-5.69.7-12.92.72-12.42,8.06.46,6.66,7.54,6,13,6.27,15.44.82,31.1.76,45.56,7.35,11.13,5.08,17.17,18.2,14.55,30.06-4.29,19.42-17.43,31.75-34.55,38.92-18,7.55-37,9.21-56,1.1-14.89-6.36-23.59-23.07-18.21-37.08C711,318.52,717.48,316.26,721.59,311Zm73.53,23.34c3.69-8.49.82-15.52-5.5-21.16-3.86-3.44-9.43-3.76-14.31-4.48-12-1.77-24.44-6-36,2-12.89,8.91-15.83,20.12-4.65,31.4,11.74,11.84,35.32,14,49.46,4.9C788.63,344,793.44,341.42,795.12,334.3Zm-59.87-94.16c1.32,5.77,5.29,9.88,9.25,13.78,5.27,5.17,12.13,6.33,18.83,4.23,6.44-2,11.43-7.17,12.42-13.74a83.78,83.78,0,0,0,.08-23.51c-1.31-9.58-14.51-19.07-23.63-18.27-9.56.84-17,9.62-17.39,20.91C734.64,228.58,735,233.64,735.25,240.14Z"/><path class="cls-2" d="M560.15,209.81c-6.58-3.78-4.81-8.71,0-9.16,13-1.2,25.1-5.48,37.22-9.92,3.31,5.31,1.2,10.36,2.62,15.64,5.57-3.28,10.92-6.38,16.23-9.56,18.46-11.05,37-7.29,48.46,10.69,4.71,7.39,5.63,16.4,5.84,25.11.31,13.83.19,27.68.19,41.52,0,8.4,2.09,15.06,12,16.31,4,.5,7,2.45,6.17,7.32-.77,4.58-4.2,4.63-7.73,4.63-14.12,0-28.24-.06-42.37,0-3.7,0-6.92-.46-7.31-5-.37-4.25,2-5.8,6-6.58,7.17-1.41,10.32-6.12,10-13.44-.59-15.5,1-31-1.37-46.53-1.54-10.11-7.13-16.52-16.35-19.61-8.55-2.87-24.09,2.25-28.79,8.65-1.85,2.51-1.49,5.37-1.5,8.16,0,16.38.28,32.77-.13,49.15-.19,7.83,2.49,12.57,10.41,13.56,4.17.51,6.87,1.72,6.57,6.72-.35,5.81-4.47,4.86-8,4.88q-21.18.12-42.37,0c-3.32,0-7.17.54-7.88-4.28s2-6.7,6.22-7.28c8.09-1.12,10.39-6.3,10.33-13.75-.14-15.25-.64-30.56.39-45.75C575.82,219.73,571.69,213,560.15,209.81Z"/><path class="cls-2" d="M872.37,302.26c-22.82-6-36.67-30-37.07-50.44-.38-20.12,4.51-37.36,21.74-48.4,23.22-14.88,45-18.82,69.55-2.51,12.39,8.23,19.71,21.28,20.37,37,.59,13.94.07,27.45-8,39.84-8.82,13.49-21.08,21.14-36.49,24.65C892.59,304.66,882.86,303.61,872.37,302.26Zm30.74-11.77c12.35-5.15,17.19-14.53,18-27.76,1-15.82.44-30.78-9-44.31-6.6-9.47-21.34-16.68-30.69-13.78-11.75,3.63-18.38,11.28-19.94,24.32-1.13,9.45-.38,18.45.66,27.65C864.13,273.73,881.36,295.12,903.11,290.49Z"/><path class="cls-2" d="M430.12,220c12.93-19.18,30.92-28.32,53-28.86,25.74-.62,43.93,13.38,50.43,38.46,6,23.3,1.48,44.2-17.06,60.58-10.46,9.23-23.36,13.46-37.21,13.6-26.22.25-41.58-9.59-50.09-29.79C421.77,256.45,421.86,238.32,430.12,220Zm22,.41c-3.83,8.19-4.49,17-3.4,25.66,2.19,17.44,7.36,33.32,24.39,42.54,9,4.9,26.23,3.41,32.8-10.57,8.95-19.06,6.06-37.59-2.09-55.35a31.1,31.1,0,0,0-28.11-18.44C465.15,204,456.93,209,452.14,220.45Z"/></g></g></g></svg>