<svg xmlns="http://www.w3.org/2000/svg" viewBox="0 0 658.59 185.56"><g id="Layer_2" data-name="Layer 2"><g id="Black_Transparent_Vectors" data-name="Black / Transparent Vectors"><g id="node.JS"><path d="M138,104.79v43.05a14.4,14.4,0,0,0,7.23,12.5l37.41,21.55a14.43,14.43,0,0,0,14.41,0l37.41-21.55a14.42,14.42,0,0,0,7.23-12.5v-43a14.42,14.42,0,0,0-7.23-12.5L197.07,70.74a14.43,14.43,0,0,0-14.41,0L145.25,92.29A14.4,14.4,0,0,0,138,104.79Z"/><path d="M579.18,159.07c2-.4,4-1.62,4-3.9l-.09-52h8.49s.18,38.51.18,52.44c0,10.54-10.06,12-13.74,12.09-5.56.19-11.83-3.82-11.83-3.82l-.24-.14L555,157.45a5.1,5.1,0,0,1-2.57-4.43V98.23A5.1,5.1,0,0,1,555,93.8l48-27.44a5.12,5.12,0,0,1,5.08,0L656,93.8a5.1,5.1,0,0,1,2.57,4.43V153a5.1,5.1,0,0,1-2.57,4.43l-48,27.44a5.12,5.12,0,0,1-5.08,0l-18.84-10.77,8.5-4.15,11.65,6.67a2.49,2.49,0,0,0,2.45,0l42.75-24.45a2.45,2.45,0,0,0,1.24-2.14V101.2a2.45,2.45,0,0,0-1.24-2.14L606.73,74.61a2.49,2.49,0,0,0-2.45,0L561.54,99.06a2.45,2.45,0,0,0-1.24,2.14v48.85a2.45,2.45,0,0,0,1.24,2.14L563,153s4.86,2.82,6.88,3.94C574.28,159.4,577.67,159.38,579.18,159.07Z"/><path d="M467.62,185c2.24-1,6-3.07,10.12-5.37l-8.59,5a5.12,5.12,0,0,1-2.2.67A6.07,6.07,0,0,0,467.62,185Z"/><path d="M466.32,145.78a1.66,1.66,0,0,1-.33-.15l-15.33-8.85a2.43,2.43,0,0,1-.32-.24l.26.14Z"/><path d="M466.32,145.78a1.66,1.66,0,0,1-.33-.15l-15.33-8.85a2.43,2.43,0,0,1-.32-.24l.26.14Z"/><path d="M456.7,121.88v7.5a3.57,3.57,0,0,0,1.77,3.09l6.32,3.7a3.58,3.58,0,0,0,3.63,0l6.32-3.7a3.57,3.57,0,0,0,1.77-3.09v-7.5a3.58,3.58,0,0,0-1.77-3.1l-6.32-3.7a3.57,3.57,0,0,0-3.63,0l-6.32,3.7A3.58,3.58,0,0,0,456.7,121.88Z"/><path d="M377,15.56,349.88.23a2.71,2.71,0,0,0-3.75,2.27V74.11a1.49,1.49,0,0,1-2.24,1.29l-12.75-7.35a5.15,5.15,0,0,0-5.1,0L279.3,95a5.11,5.11,0,0,0-2.56,4.42v53.83a5.11,5.11,0,0,0,2.56,4.42L326,184.58a5.1,5.1,0,0,0,5.1,0l46.74-26.93a5.1,5.1,0,0,0,2.55-4.42V21.09A6.18,6.18,0,0,0,377,15.56Zm-30.9,117.91a5.08,5.08,0,0,1-2.56,4.42l-12.43,7.17a5.1,5.1,0,0,1-5.1,0l-12.44-7.17a5.09,5.09,0,0,1-2.55-4.42V119.16a5.1,5.1,0,0,1,2.55-4.42L326,107.57a5.1,5.1,0,0,1,5.1,0l12.43,7.17a5.09,5.09,0,0,1,2.56,4.42Z"/><path d="M0,98.62v72.22c0,1.83,1.33,1.39,2.91,2.31l29.63-16.89a3.35,3.35,0,0,0,1.7-2.88l.18-35.56a4.43,4.43,0,0,1,1.84-3.91L47.93,107a7.65,7.65,0,0,1,8-.27L67.6,114.4c1.45,1,1.6.95,1.6,2.73l.24,35.37a4.43,4.43,0,0,0,2.25,3.82c5.72,3.22,20.6,11.87,27.54,16.12,1.58,1,4,0,4.07-1.82l.39-72a5.12,5.12,0,0,0-2.56-4.43L54.39,67.27a5.09,5.09,0,0,0-5.09,0L2.56,94.19A5.12,5.12,0,0,0,0,98.62Z"/><path d="M518.45,99.4V112a4.11,4.11,0,0,1-1.74,3.36c-6.59,4.6-29.4,18.75-29.4,18.75a3,3,0,0,1-3-3V117.32a2,2,0,0,0-1-1.75L468,106.72a2,2,0,0,0-2,0l-15.33,8.85a2,2,0,0,0-1,1.75V135a2,2,0,0,0,.67,1.51h0a2.43,2.43,0,0,0,.32.24L466,145.63a1.66,1.66,0,0,0,.33.15L497.71,164a2.47,2.47,0,0,1,.8,3.69l-.26.16-.09.05-.34.2-20.08,11.56c-4.13,2.3-7.88,4.33-10.12,5.37a6.07,6.07,0,0,1-.67.25h0a5.15,5.15,0,0,1-2.88-.67l-23.4-13.48-23.34-13.45a5.11,5.11,0,0,1-2.56-4.42V99.4A5.11,5.11,0,0,1,417.32,95l46.74-26.93a5.14,5.14,0,0,1,5.09,0l15.19,8.75L515.89,95A5.11,5.11,0,0,1,518.45,99.4Z"/><path d="M466.32,145.78a1.66,1.66,0,0,1-.33-.15l-15.33-8.85a2.43,2.43,0,0,1-.32-.24l.26.14Z"/><path d="M466.94,185.25a4.1,4.1,0,0,1-3.1-.42L440.66,171.1l23.4,13.48A5.15,5.15,0,0,0,466.94,185.25Z"/><path d="M498.25,167.82c-1.77,1-11.95,7-20.51,11.81Z"/><line x1="587.65" y1="171.1" x2="587.65" y2="171.1"/><path d="M596.73,115.2c-1.13-8,7.82-13.8,20.53-13.8,10.9,0,21.36,3.87,21.36,16.22,0,.47-.38.38-.84.43-2.1.22-7.16.37-7.19,0-.43-7.72-7.57-9.17-13.33-9.17-4.54,0-11.32.68-11.76,5.49s3.37,5.9,14.58,6.72c4.15.3,21.36,1.32,19.92,15.77-.27,2.65-3.75,13.21-20.85,13.21-15.26,0-23.83-5.28-23.25-17.26a.07.07,0,0,1,.08-.08c.65,0,6.16,0,7.25,0,.73,0,.7-.07.7,1.37,0,7.38,7,8.15,14.71,8.15,4.19,0,12.56.67,13.09-6.24.51-6.73-9.26-6.44-16.16-7C603.4,127.91,598.15,125.22,596.73,115.2Z"/></g></g></g></svg>