<svg xmlns="http://www.w3.org/2000/svg" viewBox="0 0 483 481.91"><defs><style>.cls-1{fill:#c0bdba;}</style></defs><g id="Layer_2" data-name="Layer 2"><g id="Black_Transparent_Vectors" data-name="Black / Transparent Vectors"><g id="Python"><path d="M0,257.49c0-10.33,0-20.66.14-31.27C.86,219.94,1.3,213.93,2.05,208c2-16,6.29-31.36,14.11-45.58s18.49-25.21,33.46-31.84c9.66-4.27,19.83-5.28,30.25-5.26q57.85.09,115.71,0c14.89,0,29.78-.14,44.67-.16,1.6,0,2.55-.31,2.51-2.18-.07-2.61,0-5.22.06-7.84,0-2,0-4.08,0-6.58H125.73c-.08-.84-.14-1.23-.14-1.62-.08-16-.22-32-.18-48,0-4.88-.11-9.89.89-14.61,1.6-7.54,6.2-13.55,11.8-18.77,6.89-6.41,15.05-10.72,23.74-14C180,4.48,199,1.7,218.31.65a351.92,351.92,0,0,1,46,.21c12.52,1,24.93,2.45,37.12,5.59,11.76,3,23,7.19,33.24,13.87,10.77,7.05,18.77,16.31,22.91,28.63.72,2.15,1.6,4.39,1.6,6.59q0,60.93-.25,121.85a52.38,52.38,0,0,1-7.72,26.73c-10.67,18-27.61,26.27-47.59,28.71-9.41,1.15-19,.77-28.54.85-35.48.33-71,.3-106.44.95-17.26.31-31.91,7.36-43,20.79C115.26,268.1,110.49,283,110.3,299.3q-.35,29.35-.49,58.71c0,1.64-.54,2-2.07,2-12.95-.05-25.9,0-38.84-.05a48.75,48.75,0,0,1-8.8-.69c-10.55-2-19.62-7.05-27.58-14.11-9.17-8.14-15.36-18.33-20.07-29.51C5.43,299,2.24,281.45.79,263.53.62,261.51.27,259.51,0,257.49ZM182.82,78.09c1.53-.81,3.14-1.51,4.6-2.45a20.68,20.68,0,0,0,7.92-25.08,21,21,0,0,0-22.78-13c-12.18,2.14-20,13.72-17.09,25.57C158.24,74.36,169.17,81.86,182.82,78.09Z"/><path class="cls-1" d="M260.82,481.91c-10.74,0-21.48,0-32.53-.12-7.18-.71-14.06-1.12-20.9-1.92-17.14-2-33.83-5.8-49.35-13.66-11.34-5.75-21-13.47-27.23-24.81-3.31-6-5.47-12.33-5.31-19.48.31-13.74,0-27.48,0-41.22.11-25.8.12-51.6.53-77.4.17-11.05,4.07-21.12,10.56-30.08,7.43-10.27,17.69-16.68,29.56-20.53,5.39-1.75,11-3.68,16.56-3.85,17.76-.57,35.54-.35,53.31-.46,24.95-.16,49.9-.42,74.85-.48A73.92,73.92,0,0,0,330.34,245a55,55,0,0,0,34-25.85,73,73,0,0,0,10.3-37.51c.12-18.9.35-37.8.52-56.7,0-.84,0-1.67,0-2.52.74-.07,1.14-.14,1.54-.14q23.15,0,46.28,0a10.72,10.72,0,0,1,2.37.37c16.07,3.79,28.32,13.06,37.58,26.46,11.2,16.2,16.47,34.57,19.28,53.79.25,1.69.52,3.38.78,5.06,0,17.58,0,35.15-.08,53-.17,4.42-.25,8.51-.34,12.77-.17,1.87-.23,3.6-.51,5.29-2.33,14-6.33,27.53-13.19,40.08-7.42,13.58-17.52,24.51-31.65,31.27-6.36,3-12.93,5.55-20.16,5.67-8.52.14-17,.5-25.55.54q-73.14.3-146.28.48h-2.85v15.7c.72.05,1.31.11,1.9.12,8.45.06,16.9.14,25.35.17q43.65.15,87.32.24c1.82,0,2.4.46,2.4,2.34,0,18.37.05,36.73.1,55.09,0,7.35-2.65,13.75-7.13,19.42-8.48,10.75-19.83,17.23-32.55,21.59-18.29,6.28-37.26,8.66-56.46,9.68C262.48,481.57,261.65,481.78,260.82,481.91Zm65.73-69.47c-7-9.83-18.4-12.55-28.23-6.75a20.78,20.78,0,0,0-9.24,24.82c3.44,10,13.92,15.21,22.36,14C325.84,442.52,335.13,426.53,326.55,412.44Z"/></g></g></g></svg>