<?xml version="1.0" encoding="UTF-8"?><svg xmlns="http://www.w3.org/2000/svg" viewBox="0 0 681.13 782.1"><g id="a"/><g id="b"><g id="c"><g id="d"><g id="e"><path d="M340.69,162.8C153.39,162.8,0,230.1,0,303.41s153.39,140.61,340.69,140.61,340.44-67.36,340.44-141.45-153.14-139.77-340.44-139.77Zm.52,250.57c-170.87,0-309.39-60.13-309.39-110.8s138.52-110.79,309.39-110.79,309.39,61.8,309.39,110.79-138.51,110.8-309.39,110.8Z"/><path d="M461.64,232.66C368.18,70.34,233.32-29.01,169.79,7.57c-60.36,34.75-45.32,203.09,48.14,365.41,93.46,162.32,228.25,261.42,292.46,224.45,66.01-38.01,44.71-202.46-48.75-364.77Zm-216.89,125.48C159.49,210.06,142.48,60.01,186.39,34.73c43.81-25.22,165.13,64.76,250.39,212.84,85.27,148.09,100.82,298.96,58.37,323.4-43,24.76-165.13-64.75-250.4-212.83Z"/><path d="M172.03,597.43c64.21,36.97,199-62.13,292.46-224.45,93.46-162.32,108.5-330.65,48.14-365.41-63.53-36.58-198.39,62.77-291.85,225.08s-114.76,326.76-48.75,364.77Zm15.23-26.46c-42.46-24.45-26.9-175.32,58.37-323.4C330.9,99.49,452.22,9.5,496.03,34.73c43.91,25.28,26.9,175.33-58.36,323.41-85.27,148.09-207.4,237.59-250.4,212.83Z"/><circle cx="341.21" cy="302.58" r="61.83"/></g><g><path d="M198.54,737.42s17.03-4.16,20.2-16.48c1.09-4.24,2.11-8.84,2.11-14.15,0-4.86-.59-9.3-1.93-13.24-3.46-10.22-11.93-17.05-28.12-18.91h-47.3v103.82h21.39v-39.52h10.96l26.6,39.52h25.44l-29.35-41.04Zm-33.65-16.48v-27.39h15.31c12.86,0,19.71,1.56,19.71,14.09,0,9.97-4.5,13.3-19.71,13.3h-15.31Z"/><path d="M273.62,697.32c-24.99,0-36.97,18.98-36.97,42.39s10.28,42.39,36.97,42.39c15.7,0,28.19-3.08,34.88-13.95,.08-.13,.14-.27,.21-.4l-14-10.7c-3.06,4.47-8.4,7.33-16.8,7.33-18.46,0-20.15-8.88-20.15-19.84h52.59c0-.09,.01-.18,.02-.27,.14-1.5,.22-3.02,.22-4.56,0-23.41-8.48-42.39-36.97-42.39Zm-15.86,33.65c0-9.85,6.26-17.83,16.17-17.83,12.13,0,16.18,7.98,16.18,17.83h-32.35Z"/><path d="M378.29,700.84c-5.05-2.22-11.79-3.52-20.75-3.52-17.54,0-28.42,5.86-32.76,13.93,6.32,4.8,8.16,6.17,14.24,10.2,2.74-3.26,5.87-9.03,20.61-8.31,3.95,.2,11.01,2.43,12.55,7.79,.68,2.35,.82,5.92,.75,7.88-6.49,.24-15.63,1.64-21.52,2.16-15.5,1.36-28.17,8.74-28.17,24.98,0,18.85,12.73,27.3,28.17,25.37,9.05-1.13,17.69-4.46,22.96-10.62v8.54h17.76v-51.44c0-15.75-5.76-23.41-13.84-26.96Zm-5.36,56.65c-3.41,4.18-10.33,7.75-19.41,8.53-5.48,.48-10.98-1-10.98-10.52,0-6.8,7.33-9.98,15-11.38,8.09-1.47,12.76-1.56,15.39-.88v14.25Z"/><path d="M479.37,768.45c-6.42,8.09-16.39,13.14-30.1,13.14-30.03,0-40.6-18.87-40.6-42.14s13.11-42.13,40.6-42.13c11.86,0,22.09,5.28,29.09,13.69l-14.83,10.84c-3.45-4.48-8.19-7.38-13.64-7.38-17.54,0-20.3,11.35-20.3,25.34s2.76,25.34,20.3,25.34c5.7,0,10.8-3.14,14.35-8.16l15.13,11.46Z"/><line x1="478.36" y1="711.01" x2="463.53" y2="721.85"/><line x1="479.37" y1="768.45" x2="464.24" y2="756.99"/><path d="M537.63,779.49c-4.07,1.34-9.41,2.1-16.36,2.1-2.6,0-4.95-.17-7.08-.49-12.71-1.91-18.97-10.77-18.97-24.11v-42.12h-10.18v-14.87h10.18v-22.9h18.97v22.9h18.79v14.87h-18.79v39.03c0,9.19,3.31,11.25,8.61,11.25,4.19,0,8.06-.83,11.48-1.86l3.35,16.2Z"/></g></g></g></g></svg>