<svg xmlns="http://www.w3.org/2000/svg" viewBox="0 0 654.62 342.49"><g id="Layer_2" data-name="Layer 2"><g id="Black_Transparent_Vectors" data-name="Black / Transparent Vectors"><g id="SQL_Logo" data-name="SQL Logo"><path d="M278.28,165.32c.06,27.53.12,54.65.17,81.77,0,10.79.15,21.58-.05,32.37-.27,14.52-8,25-19.14,33.29-16.56,12.39-35.72,18.73-55.64,23a310.8,310.8,0,0,1-121.09,1.6c-22.22-4-43.75-10.33-62.4-23.79C7.16,304.16-.1,292.2,0,275.33.4,204.89.19,134.44.08,64c0-12.38,5.12-22.15,14-30.26C27.51,21.44,43.93,14.91,61.11,10,93.21.74,126-1.18,159.18.6c23.37,1.25,46.31,4.87,68.44,12.7,15.4,5.46,30,12.34,41.1,25,6.1,6.93,9.49,14.87,9.51,24.13q.07,37.56,0,75.13C278.29,146.65,278.28,155.78,278.28,165.32ZM143.06,25.13a287.82,287.82,0,0,0-58.29,5c-14.2,2.76-28.1,6.63-40.85,13.57A64.08,64.08,0,0,0,29.62,54.2c-5.9,5.79-5.47,10.59.23,16.57,6.67,7,15.17,11.11,24,14.55,28.72,11.24,58.85,14.16,89.35,14a251.84,251.84,0,0,0,60.11-7.2c14.71-3.7,29.06-8.32,41.29-17.72,11.26-8.65,11.07-16.12-.34-24.71a86.5,86.5,0,0,0-23.55-12.12C195.84,28.76,170.06,25.71,143.06,25.13ZM119.28,171.34c94.84,5.51,133.4-26.91,133.4-34.79,0-11.24-.4-28-.4-39.2C216,119.43,181.76,122.94,141,122.94c-29.91,0-80.29-5.94-116-25.44,0,12.52-.15,30.8-.15,41.08,0,1.75,7.34,9.92,16.38,14.46C53.43,159.13,78.84,169,119.28,171.34Zm9.3,26.22c-36-1.68-71.89-6.82-104.29-25.1,0,10.8.63,26.64.22,38.66-.11,3.19,4.66,8.5,11,12.47C62.26,240.47,98.16,247.51,148.08,246c36.88-1.14,74.18-8.33,97.47-26.53,5.3-4.13,7-6.76,6.89-9.71s0-37.7,0-37.7C250.81,172.81,203.88,201.07,128.58,197.56ZM127,315.46c33.94,0,57.45,1.2,91.44-11.23,12.41-4.54,34-17.49,34-24.54V246.14C217,266.91,178.8,272.69,139.34,272.7s-81.82-4.37-114.13-25.43c0,10-.47,22.51-.47,33.2C24.74,286.53,52.45,315.46,127,315.46Z"/><path d="M589.76,103.28h29.88s-1.22,90.17.28,96.64c3.37,14.49,16.58,12.33,34.7,13.23v29.16l-39.68,0c-13.25,0-25.25-15.5-25.25-26C589.69,216.27,589.41,104.08,589.76,103.28Z"/><path d="M495.48,263.64s-.37-44.79-.37-67.22c8,0,16.85-.74,25.37-.74,0,6.07.37,12.32.37,18.42,24.48-7.59,37.84-51.07,8.74-76.63-10.67-9.37-29.21-8.36-40.64-3.12-19.22,8.81-28,32.72-22.31,52.91,4.52,15.92,17.78,22.24,20.65,24.29V243.9c-2.14-.76-42.66-12.53-51.57-53.45a75.29,75.29,0,0,1,13.4-61.89c26.37-35.2,73.93-32.09,97.41-16.08,15,10.24,24.27,25.9,28.22,43.48,3.13,14,2.23,27.68-.73,41.85C565.65,238,523.76,245.59,522.48,246v17.61Z"/><path d="M337.46,215c8.52.44,33.69,1.32,41.92.91,9.75-.48,16.2-5.55,12.82-10.54-3.85-5.67-29.64-25.82-38.74-35.07C343.5,160.22,336,148.4,336,131.22c0-12.74,5.61-20.32,15.8-24.14,5.74-2.15,13.5-3.27,19.6-3.51,16.58-.64,44.27.2,45.5.35,0,8.7-.37,17-.37,26.05-25.66-1.6-38.53-2.57-46.88,1.54-3.36,1.66-8.24,5.63-1.64,12.23,14.84,13.16,20.64,16.79,32.95,26.88,7.49,6.14,15.93,16.31,19.51,25.35,6.16,15.59-2,35.57-17.68,43-13.32,6.33-33.93,4-65.5,4C337.27,239,337.46,220.45,337.46,215Z"/></g></g></g></svg>