<svg xmlns="http://www.w3.org/2000/svg" viewBox="0 0 535.68 77.76"><defs><style>.cls-1{fill:#fcc842;}</style></defs><g id="Layer_2" data-name="Layer 2"><g id="Layer_1-2" data-name="Layer 1"><path d="M45.77,23V54.79A11,11,0,0,1,45.06,59a5.26,5.26,0,0,1-2.36,2.69,9,9,0,0,1-4.44.93H29.35V60.5h9a5.19,5.19,0,0,0,3.62-1.18q1.32-1.18,1.32-4.2V23ZM35,25.05V23h9.49v2.09Zm7.85-8.34v-4h3.29v4Z"/><path d="M71.57,53.48a15,15,0,0,1-7.69-1.9,12.43,12.43,0,0,1-5-5.4,18.59,18.59,0,0,1-1.73-8.34,18.19,18.19,0,0,1,1.73-8.21,12.65,12.65,0,0,1,5-5.4,14.8,14.8,0,0,1,7.69-1.92q6.42,0,10,3.48t3.26,9.69H59.22V33.12l22.94.11a8.3,8.3,0,0,0-3-6.34,11.65,11.65,0,0,0-7.54-2.28,11,11,0,0,0-8.65,3.54q-3.15,3.54-3.15,9.63a16.6,16.6,0,0,0,1.42,7.14,10.65,10.65,0,0,0,4.07,4.63,11.77,11.77,0,0,0,6.31,1.62A12.62,12.62,0,0,0,79.08,49a9,9,0,0,0,3.74-5.82h2.52a11.84,11.84,0,0,1-4.61,7.52A14.89,14.89,0,0,1,71.57,53.48Z"/><path d="M92.2,52.82V23h2.25l.27,8.18V52.82Zm22.72,0V33.61a8.94,8.94,0,0,0-2.42-6.53,8.41,8.41,0,0,0-6.31-2.47A10.58,10.58,0,0,0,98.46,28c-2.24,2.25-3.66,5.59-4.29,10l-.6-5.16a14.72,14.72,0,0,1,4.8-7.73,12.16,12.16,0,0,1,7.93-2.8,11.63,11.63,0,0,1,5.85,1.42,10.06,10.06,0,0,1,3.89,4,12.13,12.13,0,0,1,1.4,6V52.82Z"/><path d="M125.56,52.82V23h2.25l.28,8.18V52.82Zm22.72,0V33.61a8.94,8.94,0,0,0-2.41-6.53,8.43,8.43,0,0,0-6.31-2.47A10.59,10.59,0,0,0,131.82,28q-3.34,3.38-4.28,10l-.61-5.16a14.74,14.74,0,0,1,4.81-7.73,12.14,12.14,0,0,1,7.93-2.8,11.56,11.56,0,0,1,5.84,1.42,10.15,10.15,0,0,1,3.9,4,12.24,12.24,0,0,1,1.4,6V52.82Z"/><path d="M158.32,52.82V50.73H184v2.09Zm4.12-27.77V23h9.49v2.09Zm7.79-8.34v-4h3.29v4Zm.44,36.11V23h2.52V52.82Z"/><path d="M191.85,52.82V50.73h26v2.09Zm2.25-27.77V23h22.28v2.09Zm8.23,27.77V19.18a11.48,11.48,0,0,1,.66-4.06,5.32,5.32,0,0,1,2.31-2.75,8.91,8.91,0,0,1,4.55-1h8.56v2.08H209.8a6.6,6.6,0,0,0-2.61.49,3.51,3.51,0,0,0-1.73,1.65,7.14,7.14,0,0,0-.6,3.24v34Z"/><path d="M238.39,53.48a15,15,0,0,1-7.69-1.9,12.49,12.49,0,0,1-5-5.4A18.72,18.72,0,0,1,224,37.84a18.33,18.33,0,0,1,1.73-8.21,12.71,12.71,0,0,1,5-5.4,14.8,14.8,0,0,1,7.69-1.92q6.42,0,10,3.48t3.26,9.69H226V33.12l22.94.11a8.3,8.3,0,0,0-3-6.34,11.65,11.65,0,0,0-7.54-2.28,11,11,0,0,0-8.65,3.54q-3.15,3.54-3.15,9.63A16.45,16.45,0,0,0,228,44.92a10.57,10.57,0,0,0,4.06,4.63,11.8,11.8,0,0,0,6.31,1.62A12.62,12.62,0,0,0,245.9,49a9,9,0,0,0,3.74-5.82h2.52a11.84,11.84,0,0,1-4.61,7.52A14.89,14.89,0,0,1,238.39,53.48Z"/><path d="M260.94,52.82V23h2.14l.38,8.24V52.82Zm20.47-19.15V30.54a5.57,5.57,0,0,0-1.78-4.31,7.13,7.13,0,0,0-5-1.62,9.79,9.79,0,0,0-7.49,3.46q-3.17,3.45-4.36,9.82l-.72-4a20,20,0,0,1,2.77-6.36,12.09,12.09,0,0,1,4.28-3.9,11.77,11.77,0,0,1,5.52-1.31,9.76,9.76,0,0,1,6.75,2.25,7.62,7.62,0,0,1,2.52,6v3.13Z"/><path d="M320.08,21.87a12.39,12.39,0,0,1,7.1,2.05A14.34,14.34,0,0,1,332,29.55a18.18,18.18,0,0,1,1.75,8.12,18.24,18.24,0,0,1-1.75,8.1,14.26,14.26,0,0,1-4.81,5.65,13.05,13.05,0,0,1-12.59.82A11.64,11.64,0,0,1,310.47,49l-.16,3.84h-6.2V12.37h6.47V26.15A11.72,11.72,0,0,1,314.7,23,12.55,12.55,0,0,1,320.08,21.87ZM318.54,48a7.5,7.5,0,0,0,4.5-1.37,9.3,9.3,0,0,0,3-3.7,12.34,12.34,0,0,0,1.1-5.3,12.47,12.47,0,0,0-1.1-5.35,9.17,9.17,0,0,0-3-3.68,7.69,7.69,0,0,0-4.5-1.34,8,8,0,0,0-4.83,1.56,9,9,0,0,0-3.13,4.31v8.95a9.27,9.27,0,0,0,3.13,4.3A7.81,7.81,0,0,0,318.54,48Z"/><path d="M353.5,53.48a16.67,16.67,0,0,1-8.21-1.92A13,13,0,0,1,340,46.09a18.07,18.07,0,0,1-1.83-8.42A18.08,18.08,0,0,1,340,29.22a13.07,13.07,0,0,1,5.27-5.43,16.56,16.56,0,0,1,8.21-1.92q7.13,0,11.19,4.2t4.06,11.6a18,18,0,0,1-1.84,8.42,12.92,12.92,0,0,1-5.26,5.47A16.56,16.56,0,0,1,353.5,53.48Zm0-5.38a7.78,7.78,0,0,0,6.33-2.8,11.54,11.54,0,0,0,2.34-7.63c0-3.25-.78-5.81-2.34-7.65a8.72,8.72,0,0,0-12.75,0c-1.54,1.84-2.31,4.4-2.31,7.65a11.64,11.64,0,0,0,2.31,7.63A7.83,7.83,0,0,0,353.5,48.1Z"/><path d="M376.87,52.82l-4.72-30.4h6.1L380.55,39l.93,7,1.27-7,3.34-16.57H392L395.48,39l1.31,7.13.88-7.13L400,22.42h5.81l-4.66,30.4H393.5L390,37l-1-8.29L388,37,384.5,52.82Z"/><path d="M425.16,53.48a17.32,17.32,0,0,1-7.16-1.4,11,11,0,0,1-4.8-4A11.2,11.2,0,0,1,411.44,42h6.15a5.86,5.86,0,0,0,2,4.83,8.32,8.32,0,0,0,5.57,1.75,8.47,8.47,0,0,0,4.5-1,3.2,3.2,0,0,0,1.7-2.85,2.87,2.87,0,0,0-1-2.31A7.48,7.48,0,0,0,427.55,41c-1.15-.33-2.41-.63-3.79-.91s-2.75-.6-4.14-1a17.55,17.55,0,0,1-3.81-1.54A7.65,7.65,0,0,1,413,35,7.25,7.25,0,0,1,412,31a7.85,7.85,0,0,1,1.51-4.75A9.84,9.84,0,0,1,417.81,23a17.21,17.21,0,0,1,6.59-1.15,14.81,14.81,0,0,1,9.21,2.66,9.4,9.4,0,0,1,3.79,7.32h-6.09a4.81,4.81,0,0,0-2-3.78,8.28,8.28,0,0,0-4.91-1.32,7.24,7.24,0,0,0-4.31,1.1,3.31,3.31,0,0,0-1.51,2.8,2.51,2.51,0,0,0,1.07,2.19,8.07,8.07,0,0,0,2.77,1.21c1.13.29,2.4.56,3.79.8s2.77.54,4.14.9a16.94,16.94,0,0,1,3.79,1.51,7.76,7.76,0,0,1,2.79,2.61A7.65,7.65,0,0,1,438,44.15,8,8,0,0,1,434.52,51C432.2,52.64,429.08,53.48,425.16,53.48Z"/><path d="M460.17,53.48a16.93,16.93,0,0,1-8.23-1.9,12.68,12.68,0,0,1-5.29-5.46,18.26,18.26,0,0,1-1.84-8.5,18,18,0,0,1,1.86-8.48,12.77,12.77,0,0,1,5.38-5.41,17.72,17.72,0,0,1,8.4-1.86q7.57,0,11.17,4.22t3.1,11.58H450l.06-4.77L468,33a5.69,5.69,0,0,0-2.3-4.22,8.45,8.45,0,0,0-5.27-1.59q-4.5,0-6.81,2.79t-2.3,8a13,13,0,0,0,1,5.3,8.31,8.31,0,0,0,3,3.62,8.51,8.51,0,0,0,4.8,1.29,9.1,9.1,0,0,0,5.41-1.54,6.33,6.33,0,0,0,2.66-4.11h6.59a11.51,11.51,0,0,1-4.59,8.06A16.21,16.21,0,0,1,460.17,53.48Z"/><path d="M482.56,52.82V22.53h6.21l.32,6.42V52.82ZM503,36.25V32.46a5,5,0,0,0-1.35-3.65,5.11,5.11,0,0,0-3.87-1.4,8.21,8.21,0,0,0-5.59,2.25,16.8,16.8,0,0,0-4.23,7.08l-.82-6.15a18.44,18.44,0,0,1,3-4.8,11.35,11.35,0,0,1,3.95-2.93,11.8,11.8,0,0,1,4.86-1,10.75,10.75,0,0,1,7.62,2.74q3,2.75,3,7.85v3.79Z"/><path class="cls-1" d="M7.63,51.9C7.63,42.12,0,41.18,0,41.18V35.35s7.63-.94,7.63-10.81V16.83C7.63,1.32,17.41,0,20.91,0h1.44V5.26h-.9c-2.15,0-8.17.85-8.17,11.76v9.21c0,9.22-7.18,11.94-7.18,11.94v.19s7.18,2.35,7.18,11.94V60.65c0,10.9,6,11.75,8.17,11.75h.9v5.26a8.73,8.73,0,0,1-1.44.1c-3.5,0-13.28-1.32-13.28-16.93Z"/><path class="cls-1" d="M528.05,60.83c0,15.61-9.78,16.93-13.28,16.93a8.73,8.73,0,0,1-1.44-.1V72.4h.9c2.16,0,8.17-.85,8.17-11.75V50.3c0-9.59,7.18-11.94,7.18-11.94v-.19s-7.18-2.72-7.18-11.94V17c0-10.91-6-11.76-8.17-11.76h-.9V0h1.44c3.5,0,13.28,1.32,13.28,16.83v7.71c0,9.87,7.63,10.81,7.63,10.81v5.83s-7.63.94-7.63,10.72Z"/></g></g></svg>