<svg xmlns="http://www.w3.org/2000/svg" viewBox="0 0 105.27 91.1"><defs><style>.cls-1{fill:#fcc842;}</style></defs><g id="Layer_2" data-name="Layer 2"><g id="Layer_1-2" data-name="Layer 1"><path d="M37.52,30.06V61.89a11.16,11.16,0,0,1-.71,4.17,5.35,5.35,0,0,1-2.36,2.69,9.06,9.06,0,0,1-4.45.93H22.09V67.6h8a5.23,5.23,0,0,0,3.62-1.18c.88-.79,1.31-2.19,1.31-4.2V30.06ZM26.76,32.15V30.06h9.5v2.09Zm7.85-8.34V19.86H37.9v3.95Z"/><path d="M66.28,29.52A15.35,15.35,0,0,1,74.93,32a16.66,16.66,0,0,1,5.84,6.78,22.16,22.16,0,0,1,2.14,9.95,22,22,0,0,1-2.14,9.88,16.88,16.88,0,0,1-5.84,6.81,15.22,15.22,0,0,1-8.65,2.47,15,15,0,0,1-7-1.63,14.3,14.3,0,0,1-5.11-4.31L54,67.05H47.58V18h6.75V35.2A13.16,13.16,0,0,1,59.4,31,15.75,15.75,0,0,1,66.28,29.52ZM64.81,62.18a10.29,10.29,0,0,0,6-1.74,11.54,11.54,0,0,0,3.94-4.77,16.6,16.6,0,0,0,1.4-7,16.77,16.77,0,0,0-1.4-7,11.32,11.32,0,0,0-3.94-4.74,10.42,10.42,0,0,0-6-1.7,10.71,10.71,0,0,0-6.34,2,11.45,11.45,0,0,0-4.14,5.51v12a11.89,11.89,0,0,0,4.14,5.51A10.5,10.5,0,0,0,64.81,62.18Z"/><path class="cls-1" d="M7.63,60.83C7.63,49.38,0,48.28,0,48.28V41.45s7.63-1.1,7.63-12.66v-9C7.63,1.6,17.41.06,20.91.06h1.44V6.22h-.9c-2.15,0-8.17,1-8.17,13.76V30.77c0,10.79-7.18,14-7.18,14V45s7.18,2.76,7.18,14V71.07c0,12.77,6,13.76,8.17,13.76h.9V91a8,8,0,0,1-1.44.11c-3.5,0-13.28-1.54-13.28-19.81Z"/><path class="cls-1" d="M97.65,71.23C97.65,89.5,87.86,91,84.36,91a7.77,7.77,0,0,1-1.43-.11V84.77h.89C86,84.77,92,83.78,92,71V58.9c0-11.23,7.18-14,7.18-14V44.7S92,41.5,92,30.71V19.93C92,7.16,86,6.16,83.82,6.16h-.89V0h1.43c3.5,0,13.29,1.54,13.29,19.71v9c0,11.56,7.62,12.66,7.62,12.66v6.83s-7.62,1.1-7.62,12.55Z"/></g></g></svg>